<svg version="1.1" viewBox="0.0 0.0 533.6535433070866 471.2257217847769" fill="none" stroke="none" stroke-linecap="square" stroke-miterlimit="10" xmlns:xlink="http://www.w3.org/1999/xlink" xmlns="http://www.w3.org/2000/svg"><clipPath id="p.0"><path d="m0 0l533.65356 0l0 471.2257l-533.65356 0l0 -471.2257z" clip-rule="nonzero"/></clipPath><g clip-path="url(#p.0)"><path fill="#000000" fill-opacity="0.0" d="m0 0l533.65356 0l0 471.2257l-533.65356 0z" fill-rule="evenodd"/><path fill="#000000" fill-opacity="0.0" d="m46.29594 261.25052l0.32107162 0.32107544l2.2456474 2.030365l4.493145 4.2778625l5.879509 5.667938l5.667938 5.667938l4.7047195 5.346863l3.7433624 4.5970764l2.6725006 4.3836365l2.030365 3.956787l1.4977112 4.489441l1.0690002 5.1334534l0.74793243 5.8813477l0.4305725 7.271454l0.105781555 8.23465l0 8.125153l-0.10764313 6.3100586l-0.105781555 3.1012268l-0.10764313 0.5345154" fill-rule="evenodd"/><path stroke="#fae63f" stroke-width="3.779527559055118" stroke-linejoin="round" stroke-linecap="round" d="m46.29594 261.25052l0.32107162 0.32107544l2.2456474 2.030365l4.493145 4.2778625l5.879509 5.667938l5.667938 5.667938l4.7047195 5.346863l3.7433624 4.5970764l2.6725006 4.3836365l2.030365 3.956787l1.4977112 4.489441l1.0690002 5.1334534l0.74793243 5.8813477l0.4305725 7.271454l0.105781555 8.23465l0 8.125153l-0.10764313 6.3100586l-0.105781555 3.1012268l-0.10764313 0.5345154" fill-rule="evenodd"/><path fill="#fae63f" d="m81.797554 346.5795l-0.3210678 -0.10580444l-1.0690002 -8.340424l-0.9613571 -3.5299377l-0.9632187 -2.6706543l6.8445816 0.21157837l-1.0708618 2.5667114l-1.1747894 3.5280762l-1.2842865 8.340454z" fill-rule="evenodd"/><path stroke="#fae63f" stroke-width="1.9658792650918635" stroke-linejoin="round" stroke-linecap="round" d="m81.797554 346.5795l-0.3210678 -0.10580444l-1.0690002 -8.340424l-0.9613571 -3.5299377l-0.9632187 -2.6706543l6.8445816 0.21157837l-1.0708618 2.5667114l-1.1747894 3.5280762l-1.2842865 8.340454z" fill-rule="evenodd"/><path fill="#000000" fill-opacity="0.0" d="m76.101 349.88904l-0.3018341 -0.30447388l-2.2677155 -2.1154785l-4.538063 -4.233612l-5.8976364 -5.5957947l-5.593174 -5.7480164l-4.839897 -5.2913513l-3.629921 -4.6876526l-2.7217827 -4.2362366l-1.9658813 -4.08136l-1.5118103 -4.5380554l-1.0577431 -4.989502l-0.75852966 -6.0498657l-0.45144272 -7.107605l-0.15223312 -8.314972l0.15223312 -8.015747l0.1496048 -6.351715l0 -3.0236206l0 -0.6062927" fill-rule="evenodd"/><path stroke="#420f51" stroke-width="3.779527559055118" stroke-linejoin="round" stroke-linecap="round" d="m76.101 349.88904l-0.3018341 -0.30447388l-2.2677155 -2.1154785l-4.538063 -4.233612l-5.8976364 -5.5957947l-5.593174 -5.7480164l-4.839897 -5.2913513l-3.629921 -4.6876526l-2.7217827 -4.2362366l-1.9658813 -4.08136l-1.5118103 -4.5380554l-1.0577431 -4.989502l-0.75852966 -6.0498657l-0.45144272 -7.107605l-0.15223312 -8.314972l0.15223312 -8.015747l0.1496048 -6.351715l0 -3.0236206l0 -0.6062927" fill-rule="evenodd"/><path fill="#420f51" d="m40.565567 264.5977l-1.2099762 8.317596l-1.2099724 3.4776917l-1.0603676 2.7217712l6.958004 0l-1.0603638 -2.5695496l-1.0577431 -3.4776917l-0.9081383 -8.469818z" fill-rule="evenodd"/><path stroke="#420f51" stroke-width="1.9658792650918635" stroke-linejoin="round" stroke-linecap="round" d="m40.565567 264.5977l-1.2099762 8.317596l-1.2099724 3.4776917l-1.0603676 2.7217712l6.958004 0l-1.0603638 -2.5695496l-1.0577431 -3.4776917l-0.9081383 -8.469818z" fill-rule="evenodd"/><path fill="#000000" fill-opacity="0.0" d="m464.49506 215.60788l3.4109802 -4.1156006l3.3370972 -3.915329l3.2588196 -3.3734741l3.1838074 -3.175583l3.177063 -2.8328705l2.9690857 -2.5722961l2.9612427 -2.2319489l2.8884583 -2.0293274l2.7430115 -1.6299133l2.6713562 -1.4249115l2.5998535 -1.225769l2.4531555 -0.822876l2.31781 -0.7590637l2.2450256 -0.556427l2.0369263 -0.2899933l1.9653931 -0.09085083l1.8253174 -0.024795532l1.6833801 0.3758545l1.4818726 0.30545044l1.407959 0.5057068l1.1998291 0.7721405l1.0645142 0.83595276l0.92681885 0.90089417l0.6513672 1.0307312l0.51605225 1.0945435l0.3807373 1.1583405l0.105285645 1.288208l-0.032409668 1.3531342l-0.16882324 1.4145508l-0.50457764 1.4103394l-0.708374 1.3351746l-0.84490967 1.4024811l-1.1156006 1.5301056l-1.3206177 1.4584198l-1.520874 1.3845367l-1.8576965 1.3779297l-2.0603638 1.3051605l-2.19458 1.3713226l-2.599823 1.225769l-2.8000793 1.1518707l-3.0016174 1.0814514l-3.4045105 0.93478394l-3.606018 0.8643646l-3.872467 0.65625l-4.208069 0.64616394l-4.4744873 0.43804932l-4.677124 0.3652649l-5.1438293 0.083236694l-5.3453674 0.0128479z" fill-rule="evenodd"/><path stroke="#fae63f" stroke-width="3.779527559055118" stroke-linejoin="round" stroke-linecap="round" d="m464.49506 215.60788l3.4109802 -4.1156006l3.3370972 -3.915329l3.2588196 -3.3734741l3.1838074 -3.175583l3.177063 -2.8328705l2.9690857 -2.5722961l2.9612427 -2.2319489l2.8884583 -2.0293274l2.7430115 -1.6299133l2.6713562 -1.4249115l2.5998535 -1.225769l2.4531555 -0.822876l2.31781 -0.7590637l2.2450256 -0.556427l2.0369263 -0.2899933l1.9653931 -0.09085083l1.8253174 -0.024795532l1.6833801 0.3758545l1.4818726 0.30545044l1.407959 0.5057068l1.1998291 0.7721405l1.0645142 0.83595276l0.92681885 0.90089417l0.6513672 1.0307312l0.51605225 1.0945435l0.3807373 1.1583405l0.105285645 1.288208l-0.032409668 1.3531342l-0.16882324 1.4145508l-0.50457764 1.4103394l-0.708374 1.3351746l-0.84490967 1.4024811l-1.1156006 1.5301056l-1.3206177 1.4584198l-1.520874 1.3845367l-1.8576965 1.3779297l-2.0603638 1.3051605l-2.19458 1.3713226l-2.599823 1.225769l-2.8000793 1.1518707l-3.0016174 1.0814514l-3.4045105 0.93478394l-3.606018 0.8643646l-3.872467 0.65625l-4.208069 0.64616394l-4.4744873 0.43804932l-4.677124 0.3652649l-5.1438293 0.083236694l-5.3453674 0.0128479z" fill-rule="evenodd"/><path fill="#000000" fill-opacity="0.0" d="m467.06897 212.55441l-2.5739136 3.0534668" fill-rule="evenodd"/><path stroke="#fae63f" stroke-width="3.779527559055118" stroke-linejoin="round" stroke-linecap="round" d="m467.06897 212.55441l-2.5739136 3.0534668" fill-rule="evenodd"/><path fill="#fae63f" d="m470.96387 202.02348l-0.8100586 2.8921967l-1.4299927 3.3499298l-4.357483 7.069229l0.39279175 0.4822693l6.09021 -5.880844l3.091095 -1.956543l2.534912 -1.3634644l-5.5114746 -4.5927734z" fill-rule="evenodd"/><path stroke="#fae63f" stroke-width="3.779527559055118" stroke-linejoin="round" stroke-linecap="round" d="m470.96387 202.02348l-0.8100586 2.8921967l-1.4299927 3.3499298l-4.357483 7.069229l0.39279175 0.4822693l6.09021 -5.880844l3.091095 -1.956543l2.534912 -1.3634644l-5.5114746 -4.5927734z" fill-rule="evenodd"/><path fill="#000000" fill-opacity="0.0" d="m468.40683 231.82677l4.8398743 -2.2677155l4.687683 -2.118103l4.3858337 -1.6614227l4.2335815 -1.5144348l4.08136 -1.2073517l3.7821655 -1.0603638l3.6299133 -0.75590515l3.4776917 -0.6036682l3.1758423 -0.30447388l3.0236206 -0.14959717l2.8740234 0l2.5695496 0.3018341l2.419983 0.3018341l2.2677002 0.45407104l1.9658813 0.6062927l1.8162842 0.75590515l1.661377 0.75590515l1.3622437 1.0577545l1.2099609 0.90812683l1.0577393 1.0577545l0.7559204 1.2099609l0.6062622 1.2099762l0.45410156 1.2099762l0.14959717 1.2099762l0 1.2099762l-0.14959717 1.2099762l-0.45410156 1.2099609l-0.6062622 1.2099762l-0.7559204 1.2073517l-1.0577393 1.0603638l-1.2099609 0.9055176l-1.3622437 0.9081421l-1.661377 0.90812683l-1.8162842 0.75590515l-1.9658813 0.6036835l-2.2677002 0.4540558l-2.419983 0.30184937l-2.5695496 0.30445862l-2.8740234 0l-3.0236206 -0.15223694l-3.1758423 -0.3018341l-3.4776917 -0.6062927l-3.6299133 -0.75590515l-3.7821655 -1.0577545l-4.08136 -1.2099609l-4.2335815 -1.5118103l-4.3858337 -1.6640472l-4.687683 -2.1181183l-4.8398743 -2.2677155z" fill-rule="evenodd"/><path stroke="#fae63f" stroke-width="3.779527559055118" stroke-linejoin="round" stroke-linecap="round" d="m468.40683 231.82677l4.8398743 -2.2677155l4.687683 -2.118103l4.3858337 -1.6614227l4.2335815 -1.5144348l4.08136 -1.2073517l3.7821655 -1.0603638l3.6299133 -0.75590515l3.4776917 -0.6036682l3.1758423 -0.30447388l3.0236206 -0.14959717l2.8740234 0l2.5695496 0.3018341l2.419983 0.3018341l2.2677002 0.45407104l1.9658813 0.6062927l1.8162842 0.75590515l1.661377 0.75590515l1.3622437 1.0577545l1.2099609 0.90812683l1.0577393 1.0577545l0.7559204 1.2099609l0.6062622 1.2099762l0.45410156 1.2099762l0.14959717 1.2099762l0 1.2099762l-0.14959717 1.2099762l-0.45410156 1.2099609l-0.6062622 1.2099762l-0.7559204 1.2073517l-1.0577393 1.0603638l-1.2099609 0.9055176l-1.3622437 0.9081421l-1.661377 0.90812683l-1.8162842 0.75590515l-1.9658813 0.6036835l-2.2677002 0.4540558l-2.419983 0.30184937l-2.5695496 0.30445862l-2.8740234 0l-3.0236206 -0.15223694l-3.1758423 -0.3018341l-3.4776917 -0.6062927l-3.6299133 -0.75590515l-3.7821655 -1.0577545l-4.08136 -1.2099609l-4.2335815 -1.5118103l-4.3858337 -1.6640472l-4.687683 -2.1181183l-4.8398743 -2.2677155z" fill-rule="evenodd"/><path fill="#000000" fill-opacity="0.0" d="m472.03674 230.16273l-3.6299133 1.664032" fill-rule="evenodd"/><path stroke="#fae63f" stroke-width="3.779527559055118" stroke-linejoin="round" stroke-linecap="round" d="m472.03674 230.16273l-3.6299133 1.664032" fill-rule="evenodd"/><path fill="#fae63f" d="m480.04987 222.29921l-1.9658813 2.27034l-2.7217712 2.4199524l-6.9553833 4.535431l0.14959717 0.6036835l8.015747 -2.7217865l3.6299133 -0.45144653l2.8740234 -0.15223694l-3.026245 -6.503937z" fill-rule="evenodd"/><path stroke="#fae63f" stroke-width="3.779527559055118" stroke-linejoin="round" stroke-linecap="round" d="m480.04987 222.29921l-1.9658813 2.27034l-2.7217712 2.4199524l-6.9553833 4.535431l0.14959717 0.6036835l8.015747 -2.7217865l3.6299133 -0.45144653l2.8740234 -0.15223694l-3.026245 -6.503937z" fill-rule="evenodd"/><path fill="#000000" fill-opacity="0.0" d="m468.40683 231.82677l4.8398743 -2.2677155l4.687683 -2.118103l4.3858337 -1.6614227l4.2335815 -1.5144348l4.08136 -1.2073517l3.7821655 -1.0603638l3.6299133 -0.75590515l3.4776917 -0.6036682l3.1758423 -0.30447388l3.0236206 -0.14959717l2.8740234 0l2.5695496 0.3018341l2.419983 0.3018341l2.2677002 0.45407104l1.9658813 0.6062927l1.8162842 0.75590515l1.661377 0.75590515l1.3622437 1.0577545l1.2099609 0.90812683l1.0577393 1.0577545l0.7559204 1.2099609l0.6062622 1.2099762l0.45410156 1.2099762l0.14959717 1.2099762l0 1.2099762l-0.14959717 1.2099762l-0.45410156 1.2099609l-0.6062622 1.2099762l-0.7559204 1.2073517l-1.0577393 1.0603638l-1.2099609 0.9055176l-1.3622437 0.9081421l-1.661377 0.90812683l-1.8162842 0.75590515l-1.9658813 0.6036835l-2.2677002 0.4540558l-2.419983 0.30184937l-2.5695496 0.30445862l-2.8740234 0l-3.0236206 -0.15223694l-3.1758423 -0.3018341l-3.4776917 -0.6062927l-3.6299133 -0.75590515l-3.7821655 -1.0577545l-4.08136 -1.2099609l-4.2335815 -1.5118103l-4.3858337 -1.6640472l-4.687683 -2.1181183l-4.8398743 -2.2677155z" fill-rule="evenodd"/><path stroke="#420f51" stroke-width="3.779527559055118" stroke-linejoin="round" stroke-linecap="round" d="m468.40683 231.82677l4.8398743 -2.2677155l4.687683 -2.118103l4.3858337 -1.6614227l4.2335815 -1.5144348l4.08136 -1.2073517l3.7821655 -1.0603638l3.6299133 -0.75590515l3.4776917 -0.6036682l3.1758423 -0.30447388l3.0236206 -0.14959717l2.8740234 0l2.5695496 0.3018341l2.419983 0.3018341l2.2677002 0.45407104l1.9658813 0.6062927l1.8162842 0.75590515l1.661377 0.75590515l1.3622437 1.0577545l1.2099609 0.90812683l1.0577393 1.0577545l0.7559204 1.2099609l0.6062622 1.2099762l0.45410156 1.2099762l0.14959717 1.2099762l0 1.2099762l-0.14959717 1.2099762l-0.45410156 1.2099609l-0.6062622 1.2099762l-0.7559204 1.2073517l-1.0577393 1.0603638l-1.2099609 0.9055176l-1.3622437 0.9081421l-1.661377 0.90812683l-1.8162842 0.75590515l-1.9658813 0.6036835l-2.2677002 0.4540558l-2.419983 0.30184937l-2.5695496 0.30445862l-2.8740234 0l-3.0236206 -0.15223694l-3.1758423 -0.3018341l-3.4776917 -0.6062927l-3.6299133 -0.75590515l-3.7821655 -1.0577545l-4.08136 -1.2099609l-4.2335815 -1.5118103l-4.3858337 -1.6640472l-4.687683 -2.1181183l-4.8398743 -2.2677155z" fill-rule="evenodd"/><path fill="#000000" fill-opacity="0.0" d="m472.03674 230.16273l-3.6299133 1.664032" fill-rule="evenodd"/><path stroke="#420f51" stroke-width="3.779527559055118" stroke-linejoin="round" stroke-linecap="round" d="m472.03674 230.16273l-3.6299133 1.664032" fill-rule="evenodd"/><path fill="#420f51" d="m480.04987 222.29921l-1.9658813 2.27034l-2.7217712 2.4199524l-6.9553833 4.535431l0.14959717 0.6036835l8.015747 -2.7217865l3.6299133 -0.45144653l2.8740234 -0.15223694l-3.026245 -6.503937z" fill-rule="evenodd"/><path stroke="#420f51" stroke-width="3.779527559055118" stroke-linejoin="round" stroke-linecap="round" d="m480.04987 222.29921l-1.9658813 2.27034l-2.7217712 2.4199524l-6.9553833 4.535431l0.14959717 0.6036835l8.015747 -2.7217865l3.6299133 -0.45144653l2.8740234 -0.15223694l-3.026245 -6.503937z" fill-rule="evenodd"/><path fill="#000000" fill-opacity="0.0" d="m426.063 202.49081l0 -0.45407104l0.15222168 -3.0236206l0.1522522 -6.2021027l0.14959717 -8.165344l0 -8.015747l-0.45407104 -7.1076202l-0.6036682 -5.897644l-1.2099915 -4.9894867l-1.3621826 -4.233597l-2.1154785 -4.233597l-2.8740234 -4.3858337l-3.6299133 -4.687668l-4.8372803 -5.4461823l-5.748047 -5.897644l-5.745392 -5.745407l-4.5380554 -4.385826l-2.2677307 -2.1181107l-0.45407104 -0.3018341" fill-rule="evenodd"/><path stroke="#fae63f" stroke-width="3.779527559055118" stroke-linejoin="round" stroke-linecap="round" d="m426.063 202.49081l0 -0.45407104l0.15222168 -3.0236206l0.1522522 -6.2021027l0.14959717 -8.165344l0 -8.015747l-0.45407104 -7.1076202l-0.6036682 -5.897644l-1.2099915 -4.9894867l-1.3621826 -4.233597l-2.1154785 -4.233597l-2.8740234 -4.3858337l-3.6299133 -4.687668l-4.8372803 -5.4461823l-5.748047 -5.897644l-5.745392 -5.745407l-4.5380554 -4.385826l-2.2677307 -2.1181107l-0.45407104 -0.3018341" fill-rule="evenodd"/><path fill="#000000" fill-opacity="0.0" d="m408.97638 219.72966l-0.30184937 -0.3018341l-1.2099609 -1.3622131l-3.3280945 -3.4776917l-5.443573 -5.897629l-7.7138977 -8.317596l-9.524933 -9.8293915l-10.435699 -10.737534l-10.887146 -10.734909l-10.585297 -10.283463l-10.13385 -9.527557l-9.375336 -8.317581l-8.921265 -7.1076202l-8.317566 -6.1994705l-8.015747 -5.2939606l-7.8635254 -4.385826l-7.8635254 -3.9317627l-3.32547 -1.359581l-8.167969 -3.17585l-8.467194 -2.5721817l-9.073486 -2.1154861l-9.8293915 -1.6640396l-10.887146 -1.3622055l-11.94751 -0.90550995l-13.307083 -0.75590515l-14.517059 -0.30446625l-15.275589 -0.1496048l-15.2729645 0l-14.364838 0.30184174l-12.5538025 0.15222931l-9.677155 0.3018341l-6.351715 0.30184174l-3.17585 0l-0.90550995 0.15222931l0 0" fill-rule="evenodd"/><path stroke="#fae63f" stroke-width="3.779527559055118" stroke-linejoin="round" stroke-linecap="round" d="m408.97638 219.72966l-0.30184937 -0.3018341l-1.2099609 -1.3622131l-3.3280945 -3.4776917l-5.443573 -5.897629l-7.7138977 -8.317596l-9.524933 -9.8293915l-10.435699 -10.737534l-10.887146 -10.734909l-10.585297 -10.283463l-10.13385 -9.527557l-9.375336 -8.317581l-8.921265 -7.1076202l-8.317566 -6.1994705l-8.015747 -5.2939606l-7.8635254 -4.385826l-7.8635254 -3.9317627l-3.32547 -1.359581l-8.167969 -3.17585l-8.467194 -2.5721817l-9.073486 -2.1154861l-9.8293915 -1.6640396l-10.887146 -1.3622055l-11.94751 -0.90550995l-13.307083 -0.75590515l-14.517059 -0.30446625l-15.275589 -0.1496048l-15.2729645 0l-14.364838 0.30184174l-12.5538025 0.15222931l-9.677155 0.3018341l-6.351715 0.30184174l-3.17585 0l-0.90550995 0.15222931l0 0" fill-rule="evenodd"/><path fill="#000000" fill-opacity="0.0" d="m81.879265 118.561676l-35.385826 85.28871" fill-rule="evenodd"/><path stroke="#fae63f" stroke-width="3.779527559055118" stroke-linejoin="round" stroke-linecap="round" d="m81.879265 118.561676l-35.385826 85.28871" fill-rule="evenodd"/><path fill="#000000" fill-opacity="0.0" d="m123.314964 77.125984l85.29133 -35.385826" fill-rule="evenodd"/><path stroke="#fae63f" stroke-width="3.779527559055118" stroke-linejoin="round" stroke-linecap="round" d="m123.314964 77.125984l85.29133 -35.385826" fill-rule="evenodd"/><path fill="#000000" fill-opacity="0.0" d="m66.6063 231.82677l341.30972 0" fill-rule="evenodd"/><path stroke="#fae63f" stroke-width="3.779527559055118" stroke-linejoin="round" stroke-linecap="round" d="m66.6063 231.82677l341.30972 0" fill-rule="evenodd"/><path fill="#000000" fill-opacity="0.0" d="m391.28348 345.09448l35.385803 -85.29132" fill-rule="evenodd"/><path stroke="#fae63f" stroke-width="3.779527559055118" stroke-linejoin="round" stroke-linecap="round" d="m391.28348 345.09448l35.385803 -85.29132" fill-rule="evenodd"/><path fill="#000000" fill-opacity="0.0" d="m123.314964 362.33334l287.021 -118.8609" fill-rule="evenodd"/><path stroke="#420f51" stroke-width="3.779527559055118" stroke-linejoin="round" stroke-linecap="round" d="m123.314964 362.33334l287.021 -118.8609" fill-rule="evenodd"/><path fill="#000000" fill-opacity="0.0" d="m93.979004 342.67453l0 -223.20734" fill-rule="evenodd"/><path stroke="#420f51" stroke-width="3.779527559055118" stroke-linejoin="round" stroke-linecap="round" d="m93.979004 342.67453l0 -223.20734" fill-rule="evenodd"/><path fill="#000000" fill-opacity="0.0" d="m408.97638 219.72966l-0.30184937 0l-1.9658813 0l-4.8398743 0.3018341l-8.015747 0.3018341l-11.188995 0.30447388l-13.761139 0.3018341l-14.97113 0.15222168l-15.275604 0l-14.818878 -0.30445862l-13.761169 -0.45407104l-12.551178 -0.75590515l-11.341217 -1.2099762l-10.283447 -1.5118103l-9.37796 -1.9658661l-8.769012 -2.4199524l-8.167999 -2.871399l-3.4776917 -1.3621979l-7.86351 -3.4776917l-7.86351 -4.233597l-7.8635254 -4.8398895l-8.317581 -5.745407l-8.619431 -6.805771l-9.223099 -7.8635254l-9.8293915 -8.923889l-10.435699 -9.8293915l-10.887131 -10.734909l-10.737534 -10.889755l-10.131241 -10.28347l-8.619415 -9.073494l-6.653549 -7.1076126l-4.385826 -4.535431l-2.1181107 -2.4199448l-0.6036682 -0.60367584l0 0" fill-rule="evenodd"/><path stroke="#420f51" stroke-width="3.779527559055118" stroke-linejoin="round" stroke-linecap="round" d="m408.97638 219.72966l-0.30184937 0l-1.9658813 0l-4.8398743 0.3018341l-8.015747 0.3018341l-11.188995 0.30447388l-13.761139 0.3018341l-14.97113 0.15222168l-15.275604 0l-14.818878 -0.30445862l-13.761169 -0.45407104l-12.551178 -0.75590515l-11.341217 -1.2099762l-10.283447 -1.5118103l-9.37796 -1.9658661l-8.769012 -2.4199524l-8.167999 -2.871399l-3.4776917 -1.3621979l-7.86351 -3.4776917l-7.86351 -4.233597l-7.8635254 -4.8398895l-8.317581 -5.745407l-8.619431 -6.805771l-9.223099 -7.8635254l-9.8293915 -8.923889l-10.435699 -9.8293915l-10.887131 -10.734909l-10.737534 -10.889755l-10.131241 -10.28347l-8.619415 -9.073494l-6.653549 -7.1076126l-4.385826 -4.535431l-2.1181107 -2.4199448l-0.6036682 -0.60367584l0 0" fill-rule="evenodd"/><path fill="#000000" fill-opacity="0.0" d="m116.35958 352.04987l241.35168 -241.3517" fill-rule="evenodd"/><path stroke="#420f51" stroke-width="3.779527559055118" stroke-linejoin="round" stroke-linecap="round" d="m116.35958 352.04987l241.35168 -241.3517" fill-rule="evenodd"/><path fill="#000000" fill-opacity="0.0" d="m426.063 202.49081l-0.30181885 -0.30445862l-2.2677307 -2.1154938l-4.5380554 -4.233597l-5.897644 -5.5957947l-5.59317 -5.7480316l-4.839905 -5.291336l-3.6299133 -4.687668l-2.7217712 -4.2362213l-1.9658813 -4.08136l-1.5118103 -4.5380554l-1.0577698 -4.989502l-0.7585144 -6.049881l-0.45144653 -7.107605l-0.15222168 -8.314957l0.15222168 -8.015755l0.14959717 -6.3517l0 -3.0236282l0 -0.6062927" fill-rule="evenodd"/><path stroke="#420f51" stroke-width="3.779527559055118" stroke-linejoin="round" stroke-linecap="round" d="m426.063 202.49081l-0.30181885 -0.30445862l-2.2677307 -2.1154938l-4.5380554 -4.233597l-5.897644 -5.5957947l-5.59317 -5.7480316l-4.839905 -5.291336l-3.6299133 -4.687668l-2.7217712 -4.2362213l-1.9658813 -4.08136l-1.5118103 -4.5380554l-1.0577698 -4.989502l-0.7585144 -6.049881l-0.45144653 -7.107605l-0.15222168 -8.314957l0.15222168 -8.015755l0.14959717 -6.3517l0 -3.0236282l0 -0.6062927" fill-rule="evenodd"/><path fill="#000000" fill-opacity="0.0" d="m123.314964 386.53018l85.29133 35.385834" fill-rule="evenodd"/><path stroke="#420f51" stroke-width="3.779527559055118" stroke-linejoin="round" stroke-linecap="round" d="m123.314964 386.53018l85.29133 35.385834" fill-rule="evenodd"/><path fill="#000000" fill-opacity="0.0" d="m415.77954 254.20735l-157.87665 157.87926" fill-rule="evenodd"/><path stroke="#420f51" stroke-width="3.779527559055118" stroke-linejoin="round" stroke-linecap="round" d="m415.77954 254.20735l-157.87665 157.87926" fill-rule="evenodd"/><path fill="#fae63f" d="m390.8294 117.049866l-0.1522522 0.30184174l5.141754 6.6535416l1.8162537 3.17585l1.207367 2.5695572l4.690277 -4.989502l-2.572174 -1.0577393l-3.32547 -1.6640472l-6.8057556 -4.989502z" fill-rule="evenodd"/><path stroke="#fae63f" stroke-width="1.9658792650918635" stroke-linejoin="round" stroke-linecap="round" d="m390.8294 117.049866l-0.1522522 0.30184174l5.141754 6.6535416l1.8162537 3.17585l1.207367 2.5695572l4.690277 -4.989502l-2.572174 -1.0577393l-3.32547 -1.6640472l-6.8057556 -4.989502z" fill-rule="evenodd"/><path fill="#fae63f" d="m136.47244 97.238846l-2.7217865 1.0577393l-3.4803162 1.2099762l-8.314957 1.2099762l0 0.3018341l8.467194 0.90813446l3.4776917 1.0577469l2.572174 1.0603638l0 -6.805771z" fill-rule="evenodd"/><path stroke="#fae63f" stroke-width="1.9658792650918635" stroke-linejoin="round" stroke-linecap="round" d="m136.47244 97.238846l-2.7217865 1.0577393l-3.4803162 1.2099762l-8.314957 1.2099762l0 0.3018341l8.467194 0.90813446l3.4776917 1.0577469l2.572174 1.0603638l0 -6.805771z" fill-rule="evenodd"/><path fill="#fae63f" d="m48.913387 189.1811l0 2.8740082l-0.30183792 3.6299286l-2.2677155 8.165344l0.3018341 0.15223694l4.233597 -7.4094543l2.4199486 -2.7217865l1.9658775 -2.118103l-6.3517036 -2.572174z" fill-rule="evenodd"/><path stroke="#fae63f" stroke-width="1.9658792650918635" stroke-linejoin="round" stroke-linecap="round" d="m48.913387 189.1811l0 2.8740082l-0.30183792 3.6299286l-2.2677155 8.165344l0.3018341 0.15223694l4.233597 -7.4094543l2.4199486 -2.7217865l1.9658775 -2.118103l-6.3517036 -2.572174z" fill-rule="evenodd"/><path fill="#fae63f" d="m208.6063 41.587925l-8.167969 2.2677193l-3.6299286 0.30446243l-2.8713837 0l2.5695496 6.349079l2.118103 -1.9658775l2.7217865 -2.417324l7.4094543 -4.2362213l-0.14961243 -0.30183792z" fill-rule="evenodd"/><path stroke="#fae63f" stroke-width="1.9658792650918635" stroke-linejoin="round" stroke-linecap="round" d="m208.6063 41.587925l-8.167969 2.2677193l-3.6299286 0.30446243l-2.8713837 0l2.5695496 6.349079l2.118103 -1.9658775l2.7217865 -2.417324l7.4094543 -4.2362213l-0.14961243 -0.30183792z" fill-rule="evenodd"/><path fill="#fae63f" d="m393.39896 228.34908l0 6.9553833l2.7217712 -1.0577393l3.4803162 -1.2099762l8.314972 -1.0577393l0 -0.3018341l-8.314972 -1.060379l-3.4803162 -1.2099609l-2.7217712 -1.0577545z" fill-rule="evenodd"/><path stroke="#fae63f" stroke-width="1.9658792650918635" stroke-linejoin="round" stroke-linecap="round" d="m393.39896 228.34908l0 6.9553833l2.7217712 -1.0577393l3.4803162 -1.2099762l8.314972 -1.0577393l0 -0.3018341l-8.314972 -1.060379l-3.4803162 -1.2099609l-2.7217712 -1.0577545z" fill-rule="evenodd"/><path fill="#fae63f" d="m426.51706 259.65353l-4.2335815 7.4094543l-2.4199524 2.7218018l-1.9658813 2.118103l6.3516846 2.5695496l0 -2.8740234l0.30184937 -3.6272888l2.2677307 -8.167969l-0.30184937 -0.14962769z" fill-rule="evenodd"/><path stroke="#fae63f" stroke-width="1.9658792650918635" stroke-linejoin="round" stroke-linecap="round" d="m426.51706 259.65353l-4.2335815 7.4094543l-2.4199524 2.7218018l-1.9658813 2.118103l6.3516846 2.5695496l0 -2.8740234l0.30184937 -3.6272888l2.2677307 -8.167969l-0.30184937 -0.14962769z" fill-rule="evenodd"/><path fill="#420f51" d="m410.18634 243.16798l-8.167969 2.27034l-3.6272888 0.3018341l-2.8740234 0l2.7217712 6.3517l1.9658813 -1.9658661l2.8740234 -2.4199524l7.2572327 -4.0839996l-0.14962769 -0.4540558z" fill-rule="evenodd"/><path stroke="#420f51" stroke-width="1.9658792650918635" stroke-linejoin="round" stroke-linecap="round" d="m410.18634 243.16798l-8.167969 2.27034l-3.6272888 0.3018341l-2.8740234 0l2.7217712 6.3517l1.9658813 -1.9658661l2.8740234 -2.4199524l7.2572327 -4.0839996l-0.14962769 -0.4540558z" fill-rule="evenodd"/><path fill="#420f51" d="m93.826775 119.46719l-1.0577469 8.4698105l-1.0603638 3.4776993l-1.2099762 2.572174l6.958008 0l-1.0603714 -2.572174l-1.0577393 -3.4776993l-1.2099762 -8.4698105z" fill-rule="evenodd"/><path stroke="#420f51" stroke-width="1.9658792650918635" stroke-linejoin="round" stroke-linecap="round" d="m93.826775 119.46719l-1.0577469 8.4698105l-1.0603638 3.4776993l-1.2099762 2.572174l6.958008 0l-1.0603714 -2.572174l-1.0577393 -3.4776993l-1.2099762 -8.4698105z" fill-rule="evenodd"/><path fill="#420f51" d="m122.10499 100.71654l-0.30184174 0.3018341l5.141739 6.6535416l1.5118103 3.3280869l1.2099762 2.5695572l4.8398895 -4.687668l-2.572174 -1.2099762l-3.1758575 -1.6614151l-6.6535416 -5.2939606z" fill-rule="evenodd"/><path stroke="#420f51" stroke-width="1.9658792650918635" stroke-linejoin="round" stroke-linecap="round" d="m122.10499 100.71654l-0.30184174 0.3018341l5.141739 6.6535416l1.5118103 3.3280869l1.2099762 2.5695572l4.8398895 -4.687668l-2.572174 -1.2099762l-3.1758575 -1.6614151l-6.6535416 -5.2939606z" fill-rule="evenodd"/><path fill="#420f51" d="m357.71127 110.54593l-6.8057556 5.141739l-3.1758728 1.6640396l-2.7217712 1.0577393l4.9921265 4.989502l1.0577393 -2.7217865l1.664032 -3.17585l5.141754 -6.8031464l-0.1522522 -0.15223694z" fill-rule="evenodd"/><path stroke="#420f51" stroke-width="1.9658792650918635" stroke-linejoin="round" stroke-linecap="round" d="m357.71127 110.54593l-6.8057556 5.141739l-3.1758728 1.6640396l-2.7217712 1.0577393l4.9921265 4.989502l1.0577393 -2.7217865l1.664032 -3.17585l5.141754 -6.8031464l-0.1522522 -0.15223694z" fill-rule="evenodd"/><path fill="#420f51" d="m390.52756 117.19948l-1.2099609 8.317581l-1.2099915 3.4776917l-1.0603638 2.7217865l6.958008 0l-1.0603638 -2.5695496l-1.0577393 -3.4776993l-0.9081421 -8.4698105z" fill-rule="evenodd"/><path stroke="#420f51" stroke-width="1.9658792650918635" stroke-linejoin="round" stroke-linecap="round" d="m390.52756 117.19948l-1.2099609 8.317581l-1.2099915 3.4776917l-1.0603638 2.7217865l6.958008 0l-1.0603638 -2.5695496l-1.0577393 -3.4776993l-0.9081421 -8.4698105z" fill-rule="evenodd"/><path fill="#420f51" d="m196.50656 413.14435l-2.5695496 6.351715l2.8713837 0l3.6299286 0.30184937l8.167969 2.2677002l0.14961243 -0.30181885l-7.4094543 -4.233612l-2.7217865 -2.4199524l-2.118103 -1.9658813z" fill-rule="evenodd"/><path stroke="#420f51" stroke-width="1.9658792650918635" stroke-linejoin="round" stroke-linecap="round" d="m196.50656 413.14435l-2.5695496 6.351715l2.8713837 0l3.6299286 0.30184937l8.167969 2.2677002l0.14961243 -0.30181885l-7.4094543 -4.233612l-2.7217865 -2.4199524l-2.118103 -1.9658813z" fill-rule="evenodd"/><path fill="#420f51" d="m265.76642 399.3832l-1.0577698 2.5695496l-1.664032 3.3280945l-5.1417236 6.653534l0.15222168 0.30181885l6.805786 -5.1417236l3.1758423 -1.8136292l2.5695496 -1.0577698l-4.8398743 -4.8398743z" fill-rule="evenodd"/><path stroke="#420f51" stroke-width="1.9658792650918635" stroke-linejoin="round" stroke-linecap="round" d="m265.76642 399.3832l-1.0577698 2.5695496l-1.664032 3.3280945l-5.1417236 6.653534l0.15222168 0.30181885l6.805786 -5.1417236l3.1758423 -1.8136292l2.5695496 -1.0577698l-4.8398743 -4.8398743z" fill-rule="evenodd"/><path fill="#fafafa" d="m438.16272 201.58267c-16.635162 0 -30.246704 13.6089325 -30.246704 30.244095c0 16.635178 13.611542 30.244095 30.246704 30.244095c16.78479 0 30.24411 -13.608917 30.24411 -30.244095c0 -16.635162 -13.45932 -30.244095 -30.24411 -30.244095z" fill-rule="evenodd"/><path stroke="#000000" stroke-width="1.9658792650918635" stroke-linejoin="round" stroke-linecap="round" d="m438.16272 201.58267c-16.635162 0 -30.246704 13.6089325 -30.246704 30.244095c0 16.635178 13.611542 30.244095 30.246704 30.244095c16.78479 0 30.24411 -13.608917 30.24411 -30.244095c0 -16.635162 -13.45932 -30.244095 -30.24411 -30.244095z" fill-rule="evenodd"/><path fill="#fafafa" d="m379.18372 58.979004c-16.78476 0 -30.24408 13.608925 -30.24408 30.244095c0 16.7874 13.45932 30.244095 30.24408 30.244095c16.635193 0 30.246735 -13.456696 30.246735 -30.244095c0 -16.63517 -13.611542 -30.244095 -30.246735 -30.244095z" fill-rule="evenodd"/><path stroke="#000000" stroke-width="1.9658792650918635" stroke-linejoin="round" stroke-linecap="round" d="m379.18372 58.979004c-16.78476 0 -30.24408 13.608925 -30.24408 30.244095c0 16.7874 13.45932 30.244095 30.24408 30.244095c16.635193 0 30.246735 -13.456696 30.246735 -30.244095c0 -16.63517 -13.611542 -30.244095 -30.246735 -30.244095z" fill-rule="evenodd"/><path fill="#fafafa" d="m93.979004 58.979004c-16.63517 0 -30.24672 13.608925 -30.24672 30.244095c0 16.7874 13.611549 30.244095 30.24672 30.244095c16.784775 0 30.244095 -13.456696 30.244095 -30.244095c0 -16.63517 -13.45932 -30.244095 -30.244095 -30.244095z" fill-rule="evenodd"/><path stroke="#000000" stroke-width="1.9658792650918635" stroke-linejoin="round" stroke-linecap="round" d="m93.979004 58.979004c-16.63517 0 -30.24672 13.608925 -30.24672 30.244095c0 16.7874 13.611549 30.244095 30.24672 30.244095c16.784775 0 30.244095 -13.456696 30.244095 -30.244095c0 -16.63517 -13.45932 -30.244095 -30.244095 -30.244095z" fill-rule="evenodd"/><path fill="#fafafa" d="m35.0 201.58267c-16.784777 0 -30.244095 13.6089325 -30.244095 30.244095c0 16.635178 13.459318 30.244095 30.244095 30.244095c16.63517 0 30.24672 -13.608917 30.24672 -30.244095c0 -16.635162 -13.611549 -30.244095 -30.24672 -30.244095z" fill-rule="evenodd"/><path stroke="#000000" stroke-width="1.9658792650918635" stroke-linejoin="round" stroke-linecap="round" d="m35.0 201.58267c-16.784777 0 -30.244095 13.6089325 -30.244095 30.244095c0 16.635178 13.459318 30.244095 30.244095 30.244095c16.63517 0 30.24672 -13.608917 30.24672 -30.244095c0 -16.635162 -13.611549 -30.244095 -30.24672 -30.244095z" fill-rule="evenodd"/><path fill="#fafafa" d="m236.58267 0.002624672c-16.635162 0 -30.24672 13.459318 -30.24672 30.244095c0 16.63517 13.611557 30.244095 30.24672 30.244095c16.632553 0 30.24411 -13.608925 30.24411 -30.244095c0 -16.784777 -13.611557 -30.244095 -30.24411 -30.244095z" fill-rule="evenodd"/><path stroke="#000000" stroke-width="1.9658792650918635" stroke-linejoin="round" stroke-linecap="round" d="m236.58267 0.002624672c-16.635162 0 -30.24672 13.459318 -30.24672 30.244095c0 16.63517 13.611557 30.244095 30.24672 30.244095c16.632553 0 30.24411 -13.608925 30.24411 -30.244095c0 -16.784777 -13.611557 -30.244095 -30.24411 -30.244095z" fill-rule="evenodd"/><path fill="#fafafa" d="m93.979004 344.18634c-16.63517 0 -30.24672 13.45932 -30.24672 30.24411c0 16.635162 13.611549 30.246704 30.24672 30.246704c16.784775 0 30.244095 -13.611542 30.244095 -30.246704c0 -16.78479 -13.45932 -30.24411 -30.244095 -30.24411z" fill-rule="evenodd"/><path stroke="#000000" stroke-width="1.9658792650918635" stroke-linejoin="round" stroke-linecap="round" d="m93.979004 344.18634c-16.63517 0 -30.24672 13.45932 -30.24672 30.24411c0 16.635162 13.611549 30.246704 30.24672 30.246704c16.784775 0 30.244095 -13.611542 30.244095 -30.246704c0 -16.78479 -13.45932 -30.24411 -30.244095 -30.24411z" fill-rule="evenodd"/><path fill="#fafafa" d="m236.58267 403.16272c-16.635162 0 -30.24672 13.611572 -30.24672 30.246735c0 16.78476 13.611557 30.24408 30.24672 30.24408c16.632553 0 30.24411 -13.45932 30.24411 -30.24408c0 -16.635162 -13.611557 -30.246735 -30.24411 -30.246735z" fill-rule="evenodd"/><path stroke="#000000" stroke-width="1.9658792650918635" stroke-linejoin="round" stroke-linecap="round" d="m236.58267 403.16272c-16.635162 0 -30.24672 13.611572 -30.24672 30.246735c0 16.78476 13.611557 30.24408 30.24672 30.24408c16.632553 0 30.24411 -13.45932 30.24411 -30.24408c0 -16.635162 -13.611557 -30.246735 -30.24411 -30.246735z" fill-rule="evenodd"/><path fill="#fafafa" d="m379.18372 344.18634c-16.78476 0 -30.24408 13.45932 -30.24408 30.24411c0 16.635162 13.45932 30.246704 30.24408 30.246704c16.635193 0 30.246735 -13.611542 30.246735 -30.246704c0 -16.78479 -13.611542 -30.24411 -30.246735 -30.24411z" fill-rule="evenodd"/><path stroke="#000000" stroke-width="1.9658792650918635" stroke-linejoin="round" stroke-linecap="round" d="m379.18372 344.18634c-16.78476 0 -30.24408 13.45932 -30.24408 30.24411c0 16.635162 13.45932 30.246704 30.24408 30.246704c16.635193 0 30.246735 -13.611542 30.246735 -30.246704c0 -16.78479 -13.611542 -30.24411 -30.246735 -30.24411z" fill-rule="evenodd"/><path fill="#000000" d="m440.1286 223.81364l0 11.944885l-8.469818 0l8.469818 -11.944885zm0.6036682 -5.2939606l-12.097107 16.784775l0 3.3280945l11.643066 0l0 6.5013123l3.328064 0l0 -6.5013123l3.9317627 0l0 -2.8740234l-3.9317627 0l0 -17.238846z" fill-rule="evenodd"/><path fill="#000000" d="m379.03412 78.637794c2.1154785 0 3.6299133 1.0577469 4.3858337 3.0236206c0.6036682 1.8162766 1.0577393 4.385826 1.0577393 7.259842c0 4.233597 -0.45407104 7.1076126 -1.5118103 8.619423c-1.0577393 1.5118103 -2.4199524 2.2677155 -4.0839844 2.2677155c-2.2677307 0 -3.779541 -1.2099686 -4.535431 -3.7795258c-0.60632324 -1.6640396 -0.9081421 -3.7795258 -0.9081421 -6.503937c0 -3.4776917 0.45407104 -6.1994705 1.3622131 -8.165352c0.90548706 -1.813652 2.2677002 -2.7217865 4.2335815 -2.7217865zm-0.15222168 -3.0236206c-3.779541 0 -6.5013123 2.1154861 -7.8635254 6.047241c-0.7558899 2.27034 -1.2099609 4.839897 -1.2099609 7.713913c0 3.931755 0.6062927 6.9553833 1.9658813 9.375328c1.5118103 2.7217865 3.9317322 4.083992 7.107605 4.083992c3.4776917 0 6.0498657 -1.6640472 7.561676 -4.9921265c1.0577393 -2.4199524 1.664032 -5.443573 1.664032 -9.073494c0 -3.7795258 -0.6062927 -6.6535416 -1.8162537 -8.921257c-1.5118103 -2.7217865 -3.9317627 -4.233597 -7.4094543 -4.233597z" fill-rule="evenodd"/><path fill="#000000" d="m94.12861 88.31759c2.1181107 0 3.4776917 0.6036682 4.233597 1.8136444c0.75852966 1.2099762 1.2099762 2.5695572 1.2099762 3.9317627c0 1.5118103 -0.45144653 2.8740082 -1.359581 4.0839844c-0.9081421 1.2073517 -2.1181107 1.813652 -3.9317627 1.813652c-1.6640396 0 -3.026245 -0.60630035 -4.0839844 -1.813652c-0.9081421 -1.0603638 -1.359581 -2.4199448 -1.359581 -4.0839844c0 -1.9658813 0.4514389 -3.4776917 1.5118103 -4.3858337c1.0577393 -0.90813446 2.4199448 -1.3595734 3.7795258 -1.3595734zm0.45407104 -12.703415c-4.083992 0 -6.9553833 2.2677155 -8.467194 6.6535416c-0.75852966 2.2677155 -1.2099762 4.989502 -1.2099762 8.317589c0 4.385826 0.90550995 7.561676 2.7217865 9.527557c1.813652 1.8136444 3.931755 2.7217865 6.3517075 2.7217865c2.8713913 0 5.1417313 -0.9081421 6.6535416 -2.7217865c1.6614151 -1.8162766 2.4199448 -3.9317627 2.4199448 -6.3517075c0 -2.8740158 -0.90813446 -4.9921265 -2.572174 -6.3517075c-1.5118103 -1.5118103 -3.4776917 -2.1181107 -5.745407 -2.1181107c-1.2099762 0 -2.4199448 0.15223694 -3.4803162 0.75590515c-1.2073517 0.45407104 -2.1154861 1.3622055 -2.8713913 2.4199524c0.1496048 -3.1758575 0.75590515 -5.5958023 1.813652 -7.2572174c1.0577393 -1.8162766 2.572174 -2.724411 4.385826 -2.724411c1.6640396 0 2.8740158 0.60630035 3.629921 1.6640396c0.45406342 0.60630035 0.75590515 1.5118103 0.90813446 2.5721817l3.3254623 0c0 -1.6640472 -0.60367584 -3.1758575 -1.813652 -4.687668c-1.0603638 -1.6640396 -3.17585 -2.4199448 -6.0498657 -2.4199448z" fill-rule="evenodd"/><path fill="#000000" d="m28.648294 218.51968l-2.1154861 14.215225l2.8740158 0.15223694c0.60367393 -0.75852966 1.359581 -1.3622131 2.1154861 -1.8162842c0.90813637 -0.45407104 1.8162708 -0.6036682 3.0236225 -0.6036682c1.5144348 0 2.8740158 0.45407104 4.083988 1.5118103c1.0577431 0.9081421 1.6640434 2.4199524 1.6640434 4.233597c0 1.5118103 -0.45407104 2.8740082 -1.5118103 4.0839844c-0.9081383 1.3595886 -2.2703438 1.9658813 -4.2362213 1.9658813c-1.0577431 0 -1.9658813 -0.15223694 -2.7217865 -0.6062927c-1.661417 -0.75590515 -2.5695534 -1.9658813 -2.7217846 -3.9317627l-3.4776897 0c0.15223122 2.572174 1.0577431 4.3858185 2.7217846 5.5957947c1.6640415 1.2099762 3.629921 1.8136597 5.7480335 1.8136597c3.4776878 0 5.8976364 -0.9055176 7.4094467 -2.871399c1.5118103 -1.8162689 2.2677155 -4.0839844 2.2677155 -6.653549c0 -2.27034 -0.75590515 -4.2362213 -2.4199448 -5.897629c-1.6640434 -1.5144348 -3.7795296 -2.27034 -6.199478 -2.27034c-1.3622017 0 -2.4199448 0.15222168 -3.328083 0.6062927c-0.60367393 0.14961243 -1.2099724 0.6036835 -1.8136482 1.0577393l1.0577431 -7.409439l11.343834 0l0 -3.1758575z" fill-rule="evenodd"/><path fill="#000000" d="m226.29921 16.787401c-0.45407104 1.9658794 -1.2099762 3.328085 -2.118103 3.7795277c-0.9081421 0.60630035 -2.5695648 1.0603676 -4.989502 1.2099743l0 2.572178l6.199478 0l0 18.750658l3.4776764 0l0 -26.312338z" fill-rule="evenodd"/><path fill="#000000" d="m247.01575 19.661417c2.1181183 0 3.4776917 0.90551186 4.233597 2.8713913c0.75590515 1.9658794 1.2099762 4.385826 1.2099762 7.412073c0 4.0813637 -0.6036835 6.9553795 -1.6640472 8.467194c-0.9055023 1.5118103 -2.2677155 2.2677155 -4.08136 2.2677155c-2.1181183 0 -3.6299286 -1.2099724 -4.5380554 -3.6272964c-0.6036835 -1.6640434 -0.9055176 -3.782154 -0.9055176 -6.503937c0 -3.6299229 0.45144653 -6.3517075 1.3595886 -8.165356c0.90812683 -1.8162727 2.4199371 -2.7217846 4.3858185 -2.7217846zm-0.15223694 -3.026247c-3.9317474 0 -6.5013123 1.9658794 -7.86351 6.0498695c-0.9055176 2.1181107 -1.2099762 4.687664 -1.2099762 7.713911c0 3.931757 0.606308 6.9553814 1.9658813 9.223097c1.5144348 2.7217865 3.7821503 4.083988 6.958008 4.083988c3.6299133 0 6.047241 -1.6640396 7.7112885 -4.9921265c1.0603638 -2.4173203 1.5118103 -5.291336 1.5118103 -8.921259c0 -3.7795277 -0.6036835 -6.805773 -1.6614227 -8.921259c-1.5144348 -2.8740158 -4.0839844 -4.2362213 -7.412079 -4.2362213z" fill-rule="evenodd"/><path fill="#000000" d="m93.67454 363.84515c1.6640472 0 2.8740158 0.45407104 3.629921 1.2099609c0.75590515 0.7559204 1.2099762 1.664032 1.2099762 2.7218018c0 1.2099609 -0.45407104 2.118103 -1.359581 2.873993c-0.75852966 0.9081421 -1.9658737 1.2099915 -3.3280792 1.2099915c-1.3622055 0 -2.4199524 -0.30184937 -3.3280869 -0.9081421c-0.90550995 -0.7559204 -1.359581 -1.8136597 -1.359581 -3.0236206c0 -1.0603638 0.30184174 -2.118103 1.0577469 -2.8740234c0.75590515 -0.7558899 1.8162689 -1.2099609 3.477684 -1.2099609zm0 11.039368c1.6640472 0 3.0262527 0.45407104 4.083992 1.3621826c1.0577469 0.7559204 1.5118103 2.115509 1.5118103 3.779541c0 1.664032 -0.45406342 2.8740234 -1.5118103 3.7821655c-0.90813446 0.7558899 -2.2677155 1.2073364 -3.7795258 1.2073364c-1.9658813 0 -3.3280869 -0.45144653 -4.2362213 -1.5118103c-0.90550995 -1.0577393 -1.359581 -2.1154785 -1.359581 -3.6299133c0 -1.5118103 0.45407104 -2.871399 1.5118103 -3.6273193c0.90813446 -0.9081116 2.2677155 -1.3621826 3.7795258 -1.3621826zm0.15223694 -14.062988c-2.5721817 0 -4.687668 0.6036682 -6.0498734 2.1154785c-1.5118103 1.3622131 -2.1154861 3.026245 -2.1154861 4.9921265c0 1.664032 0.45407104 2.8740234 1.359581 3.9317627c0.60630035 0.45407104 1.3622055 0.9081421 2.2677155 1.3595581c-1.5118103 0.60632324 -2.7217789 1.5144348 -3.4776917 2.5722046c-0.75590515 1.2099609 -1.0577393 2.5695496 -1.0577393 4.08136c0 2.7243958 0.90813446 4.690277 2.5695572 6.0498657c1.8162689 1.3622131 3.931755 2.118103 6.503937 2.118103c2.8740158 0 5.1417313 -0.7558899 6.6535416 -2.4199524c1.6640396 -1.664032 2.4199448 -3.6299133 2.4199448 -5.897644c0 -1.9658508 -0.60630035 -3.6299133 -1.8136444 -4.8398743c-0.60630035 -0.6036682 -1.5144348 -1.2099915 -2.5721817 -1.8136597c1.0577469 -0.45407104 1.6640396 -1.0603638 2.1181107 -1.664032c0.90550995 -0.9081421 1.359581 -2.2677307 1.359581 -3.9317627c0 -1.8136597 -0.75590515 -3.3280945 -2.2677155 -4.6876526c-1.3622055 -1.3622131 -3.3280869 -1.9658813 -5.8976364 -1.9658813z" fill-rule="evenodd"/><path fill="#000000" d="m236.88452 420.25198c-0.606308 2.118103 -1.2099762 3.328064 -2.2703552 3.9317322c-0.9055023 0.60369873 -2.5695496 0.9081421 -4.989502 1.2099915l0 2.5695496l6.351715 0l0 18.601044l3.4776917 0l0 -26.312317z" fill-rule="evenodd"/><path fill="#000000" d="m379.33597 361.12335c-3.6299438 0 -6.1994934 1.3622131 -7.561676 3.9317627c-0.9055176 1.3622131 -1.2099915 3.3280945 -1.3595886 5.5957947l3.4776917 0c0 -1.664032 0.30181885 -2.873993 0.7558899 -3.9317627c0.9081421 -1.664032 2.4199524 -2.572174 4.687683 -2.572174c1.5118103 0 2.7217712 0.45407104 3.6299133 1.3622131c1.0577393 0.9081421 1.5118103 2.118103 1.5118103 3.6299133c0 1.3595886 -0.6036682 2.5695496 -1.5118103 3.6299438c-0.7559204 0.6036682 -1.8162842 1.3595581 -3.3280945 2.2677002l-3.6299133 2.1154785c-2.417328 1.3622131 -3.9317627 2.8740234 -4.8372803 4.5380554c-0.7558899 1.6640625 -1.2099609 3.6299438 -1.3621826 6.0498657l18.146973 0l0 -3.1758423l-14.364838 0c0.30184937 -1.3622131 1.0577393 -2.572174 2.2677307 -3.6299133c0.7558899 -0.6062927 1.664032 -1.2099915 2.873993 -1.8162842l2.56958 -1.5118103c2.118103 -1.2099609 3.6299133 -2.2677002 4.5380554 -3.1758423c1.5118103 -1.5118103 2.2677002 -3.32547 2.2677002 -5.443573c0 -1.9658813 -0.7558899 -3.779541 -2.118103 -5.443573c-1.3595886 -1.5118103 -3.6299133 -2.4199524 -6.653534 -2.4199524z" fill-rule="evenodd"/></g></svg>