<svg version="1.1" viewBox="0.0 0.0 472.90813648293965 253.3989501312336" fill="none" stroke="none" stroke-linecap="square" stroke-miterlimit="10" xmlns:xlink="http://www.w3.org/1999/xlink" xmlns="http://www.w3.org/2000/svg"><clipPath id="p.0"><path d="m0 0l472.90814 0l0 253.39896l-472.90814 0l0 -253.39896z" clip-rule="nonzero"/></clipPath><g clip-path="url(#p.0)"><path fill="#000000" fill-opacity="0.0" d="m0 0l472.90814 0l0 253.39896l-472.90814 0z" fill-rule="evenodd"/><path fill="#e06666" d="m348.2062 9.489893l92.522675 0l0 25.683165l-92.522675 0z" fill-rule="evenodd"/><path stroke="#000000" stroke-width="2.0" stroke-linejoin="round" stroke-linecap="butt" d="m348.2062 9.489893l92.522675 0l0 25.683165l-92.522675 0z" fill-rule="evenodd"/><path fill="#000000" d="m385.9961 27.131475l-1.828125 0l0 -6.890625q-1.0 0.9375 -2.375 1.390625l0 -1.671875q0.71875 -0.234375 1.5625 -0.875q0.84375 -0.65625 1.15625 -1.53125l1.484375 0l0 9.578125zm6.676819 0l-1.828125 0l0 -6.890625q-1.0 0.9375 -2.375 1.390625l0 -1.671875q0.71875 -0.234375 1.5625 -0.875q0.84375 -0.65625 1.15625 -1.53125l1.484375 0l0 9.578125zm6.6767883 0l-1.828125 0l0 -6.890625q-1.0 0.9375 -2.375 1.390625l0 -1.671875q0.71875 -0.234375 1.5625 -0.875q0.84375 -0.65625 1.15625 -1.53125l1.484375 0l0 9.578125zm6.676819 0l-1.828125 0l0 -6.890625q-1.0 0.9375 -2.375 1.390625l0 -1.671875q0.71875 -0.234375 1.5625 -0.875q0.84375 -0.65625 1.15625 -1.53125l1.484375 0l0 9.578125z" fill-rule="nonzero"/><path fill="#efefef" d="m348.20554 35.1599l92.522675 0l0 25.683167l-92.522675 0z" fill-rule="evenodd"/><path stroke="#000000" stroke-width="2.0" stroke-linejoin="round" stroke-linecap="butt" d="m348.20554 35.1599l92.522675 0l0 25.683167l-92.522675 0z" fill-rule="evenodd"/><path fill="#000000" d="m361.29788 55.457733l0 -12.203125l2.578125 0l0 0.96875l-1.40625 0l0 10.25l1.40625 0l0 0.984375l-2.578125 0zm3.6873474 -10.84375l0 -1.359375l1.171875 0l0 1.359375l-1.171875 0zm0 8.1875l0 -6.90625l1.171875 0l0 6.90625l-1.171875 0zm2.945465 0l0 -6.90625l1.0625 0l0 0.984375q0.75 -1.140625 2.1875 -1.140625q0.625 0 1.15625 0.21875q0.53125 0.21875 0.78125 0.59375q0.265625 0.359375 0.375 0.859375q0.0625 0.328125 0.0625 1.140625l0 4.25l-1.171875 0l0 -4.203125q0 -0.71875 -0.140625 -1.0625q-0.140625 -0.359375 -0.484375 -0.5625q-0.34375 -0.21875 -0.8125 -0.21875q-0.75 0 -1.296875 0.46875q-0.546875 0.46875 -0.546875 1.796875l0 3.78125l-1.171875 0zm6.9437256 -2.0625l1.15625 -0.1875q0.109375 0.703125 0.546875 1.078125q0.453125 0.359375 1.25 0.359375q0.8125 0 1.203125 -0.328125q0.390625 -0.328125 0.390625 -0.765625q0 -0.390625 -0.359375 -0.625q-0.234375 -0.15625 -1.1875 -0.390625q-1.296875 -0.328125 -1.796875 -0.5625q-0.484375 -0.25 -0.75 -0.65625q-0.25 -0.421875 -0.25 -0.9375q0 -0.453125 0.203125 -0.84375q0.21875 -0.40625 0.578125 -0.671875q0.28125 -0.1875 0.75 -0.328125q0.46875 -0.140625 1.015625 -0.140625q0.8125 0 1.421875 0.234375q0.609375 0.234375 0.90625 0.640625q0.296875 0.390625 0.40625 1.0625l-1.140625 0.15625q-0.078125 -0.53125 -0.453125 -0.828125q-0.375 -0.3125 -1.0625 -0.3125q-0.8125 0 -1.15625 0.265625q-0.34375 0.265625 -0.34375 0.625q0 0.234375 0.140625 0.421875q0.15625 0.1875 0.453125 0.3125q0.171875 0.0625 1.03125 0.296875q1.25 0.328125 1.734375 0.546875q0.5 0.203125 0.78125 0.609375q0.28125 0.40625 0.28125 1.0q0 0.59375 -0.34375 1.109375q-0.34375 0.515625 -1.0 0.796875q-0.640625 0.28125 -1.453125 0.28125q-1.34375 0 -2.046875 -0.5625q-0.703125 -0.5625 -0.90625 -1.65625zm9.6953125 1.015625l0.171875 1.03125q-0.5 0.109375 -0.890625 0.109375q-0.640625 0 -1.0 -0.203125q-0.34375 -0.203125 -0.484375 -0.53125q-0.140625 -0.328125 -0.140625 -1.390625l0 -3.96875l-0.859375 0l0 -0.90625l0.859375 0l0 -1.71875l1.171875 -0.703125l0 2.421875l1.171875 0l0 0.90625l-1.171875 0l0 4.046875q0 0.5 0.046875 0.640625q0.0625 0.140625 0.203125 0.234375q0.140625 0.078125 0.40625 0.078125q0.203125 0 0.515625 -0.046875zm1.1248779 1.046875l0 -6.90625l1.0625 0l0 1.046875q0.40625 -0.734375 0.734375 -0.96875q0.34375 -0.234375 0.765625 -0.234375q0.59375 0 1.203125 0.375l-0.40625 1.078125q-0.4375 -0.25 -0.859375 -0.25q-0.390625 0 -0.703125 0.234375q-0.296875 0.234375 -0.421875 0.640625q-0.203125 0.625 -0.203125 1.359375l0 3.625l-1.171875 0zm8.9852295 0l0 -1.015625q-0.8125 1.171875 -2.1875 1.171875q-0.609375 0 -1.140625 -0.234375q-0.53125 -0.234375 -0.796875 -0.578125q-0.25 -0.359375 -0.359375 -0.875q-0.0625 -0.34375 -0.0625 -1.09375l0 -4.28125l1.171875 0l0 3.828125q0 0.921875 0.0625 1.234375q0.109375 0.46875 0.46875 0.734375q0.359375 0.25 0.890625 0.25q0.515625 0 0.984375 -0.265625q0.46875 -0.265625 0.65625 -0.734375q0.1875 -0.46875 0.1875 -1.34375l0 -3.703125l1.171875 0l0 6.90625l-1.046875 0zm7.3968506 -2.53125l1.15625 0.15625q-0.1875 1.1875 -0.96875 1.859375q-0.78125 0.671875 -1.921875 0.671875q-1.40625 0 -2.28125 -0.921875q-0.859375 -0.9375 -0.859375 -2.65625q0 -1.125 0.375 -1.96875q0.375 -0.84375 1.125 -1.25q0.765625 -0.421875 1.65625 -0.421875q1.125 0 1.84375 0.578125q0.71875 0.5625 0.921875 1.609375l-1.140625 0.171875q-0.171875 -0.703125 -0.59375 -1.046875q-0.40625 -0.359375 -0.984375 -0.359375q-0.890625 0 -1.453125 0.640625q-0.546875 0.640625 -0.546875 2.0q0 1.40625 0.53125 2.03125q0.546875 0.625 1.40625 0.625q0.6875 0 1.140625 -0.421875q0.46875 -0.421875 0.59375 -1.296875zm4.7109375 1.484375l0.171875 1.03125q-0.5 0.109375 -0.890625 0.109375q-0.640625 0 -1.0 -0.203125q-0.34375 -0.203125 -0.484375 -0.53125q-0.140625 -0.328125 -0.140625 -1.390625l0 -3.96875l-0.859375 0l0 -0.90625l0.859375 0l0 -1.71875l1.171875 -0.703125l0 2.421875l1.171875 0l0 0.90625l-1.171875 0l0 4.046875q0 0.5 0.046875 0.640625q0.0625 0.140625 0.203125 0.234375q0.140625 0.078125 0.40625 0.078125q0.203125 0 0.515625 -0.046875zm1.1561279 -7.140625l0 -1.359375l1.171875 0l0 1.359375l-1.171875 0zm0 8.1875l0 -6.90625l1.171875 0l0 6.90625l-1.171875 0zm2.507965 -3.453125q0 -1.921875 1.078125 -2.84375q0.8905945 -0.765625 2.1718445 -0.765625q1.421875 0 2.328125 0.9375q0.90625 0.921875 0.90625 2.578125q0 1.328125 -0.40625 2.09375q-0.390625 0.765625 -1.15625 1.1875q-0.765625 0.421875 -1.671875 0.421875q-1.453125 0 -2.3593445 -0.921875q-0.890625 -0.9375 -0.890625 -2.6875zm1.203125 0q0 1.328125 0.5780945 1.984375q0.59375 0.65625 1.46875 0.65625q0.875 0 1.453125 -0.65625q0.578125 -0.671875 0.578125 -2.03125q0 -1.28125 -0.59375 -1.9375q-0.578125 -0.65625 -1.4375 -0.65625q-0.875 0 -1.46875 0.65625q-0.5780945 0.65625 -0.5780945 1.984375zm6.64682 3.453125l0 -6.90625l1.0625 0l0 0.984375q0.75 -1.140625 2.1875 -1.140625q0.625 0 1.15625 0.21875q0.53125 0.21875 0.78125 0.59375q0.265625 0.359375 0.375 0.859375q0.0625 0.328125 0.0625 1.140625l0 4.25l-1.171875 0l0 -4.203125q0 -0.71875 -0.140625 -1.0625q-0.140625 -0.359375 -0.484375 -0.5625q-0.34375 -0.21875 -0.8125 -0.21875q-0.75 0 -1.296875 0.46875q-0.546875 0.46875 -0.546875 1.796875l0 3.78125l-1.171875 0zm9.381226 2.65625l-2.59375 0l0 -0.984375l1.421875 0l0 -10.25l-1.421875 0l0 -0.96875l2.59375 0l0 12.203125z" fill-rule="nonzero"/><path fill="#efefef" d="m348.20554 60.847443l92.522675 0l0 25.683167l-92.522675 0z" fill-rule="evenodd"/><path stroke="#000000" stroke-width="2.0" stroke-linejoin="round" stroke-linecap="butt" d="m348.20554 60.847443l92.522675 0l0 25.683167l-92.522675 0z" fill-rule="evenodd"/><path fill="#000000" d="m361.29788 81.14527l0 -12.203125l2.578125 0l0 0.96875l-1.40625 0l0 10.25l1.40625 0l0 0.984375l-2.578125 0zm3.6873474 -10.84375l0 -1.359375l1.171875 0l0 1.359375l-1.171875 0zm0 8.1875l0 -6.90625l1.171875 0l0 6.90625l-1.171875 0zm2.945465 0l0 -6.90625l1.0625 0l0 0.984375q0.75 -1.140625 2.1875 -1.140625q0.625 0 1.15625 0.21875q0.53125 0.21875 0.78125 0.59375q0.265625 0.359375 0.375 0.859375q0.0625 0.328125 0.0625 1.140625l0 4.25l-1.171875 0l0 -4.203125q0 -0.71875 -0.140625 -1.0625q-0.140625 -0.359375 -0.484375 -0.5625q-0.34375 -0.21875 -0.8125 -0.21875q-0.75 0 -1.296875 0.46875q-0.546875 0.46875 -0.546875 1.796875l0 3.78125l-1.171875 0zm6.9437256 -2.0625l1.15625 -0.1875q0.109375 0.703125 0.546875 1.078125q0.453125 0.359375 1.25 0.359375q0.8125 0 1.203125 -0.328125q0.390625 -0.328125 0.390625 -0.765625q0 -0.390625 -0.359375 -0.625q-0.234375 -0.15625 -1.1875 -0.390625q-1.296875 -0.328125 -1.796875 -0.5625q-0.484375 -0.25 -0.75 -0.65625q-0.25 -0.421875 -0.25 -0.9375q0 -0.453125 0.203125 -0.84375q0.21875 -0.40625 0.578125 -0.671875q0.28125 -0.1875 0.75 -0.328125q0.46875 -0.140625 1.015625 -0.140625q0.8125 0 1.421875 0.234375q0.609375 0.234375 0.90625 0.640625q0.296875 0.390625 0.40625 1.0625l-1.140625 0.15625q-0.078125 -0.53125 -0.453125 -0.828125q-0.375 -0.3125 -1.0625 -0.3125q-0.8125 0 -1.15625 0.265625q-0.34375 0.265625 -0.34375 0.625q0 0.234375 0.140625 0.421875q0.15625 0.1875 0.453125 0.3125q0.171875 0.0625 1.03125 0.296875q1.25 0.328125 1.734375 0.546875q0.5 0.203125 0.78125 0.609375q0.28125 0.40625 0.28125 1.0q0 0.59375 -0.34375 1.109375q-0.34375 0.515625 -1.0 0.796875q-0.640625 0.28125 -1.453125 0.28125q-1.34375 0 -2.046875 -0.5625q-0.703125 -0.5625 -0.90625 -1.65625zm9.6953125 1.015625l0.171875 1.03125q-0.5 0.109375 -0.890625 0.109375q-0.640625 0 -1.0 -0.203125q-0.34375 -0.203125 -0.484375 -0.53125q-0.140625 -0.328125 -0.140625 -1.390625l0 -3.96875l-0.859375 0l0 -0.90625l0.859375 0l0 -1.71875l1.171875 -0.703125l0 2.421875l1.171875 0l0 0.90625l-1.171875 0l0 4.046875q0 0.5 0.046875 0.640625q0.0625 0.140625 0.203125 0.234375q0.140625 0.078125 0.40625 0.078125q0.203125 0 0.515625 -0.046875zm1.1248779 1.046875l0 -6.90625l1.0625 0l0 1.046875q0.40625 -0.734375 0.734375 -0.96875q0.34375 -0.234375 0.765625 -0.234375q0.59375 0 1.203125 0.375l-0.40625 1.078125q-0.4375 -0.25 -0.859375 -0.25q-0.390625 0 -0.703125 0.234375q-0.296875 0.234375 -0.421875 0.640625q-0.203125 0.625 -0.203125 1.359375l0 3.625l-1.171875 0zm8.9852295 0l0 -1.015625q-0.8125 1.171875 -2.1875 1.171875q-0.609375 0 -1.140625 -0.234375q-0.53125 -0.234375 -0.796875 -0.578125q-0.25 -0.359375 -0.359375 -0.875q-0.0625 -0.34375 -0.0625 -1.09375l0 -4.28125l1.171875 0l0 3.828125q0 0.921875 0.0625 1.234375q0.109375 0.46875 0.46875 0.734375q0.359375 0.25 0.890625 0.25q0.515625 0 0.984375 -0.265625q0.46875 -0.265625 0.65625 -0.734375q0.1875 -0.46875 0.1875 -1.34375l0 -3.703125l1.171875 0l0 6.90625l-1.046875 0zm7.3968506 -2.53125l1.15625 0.15625q-0.1875 1.1875 -0.96875 1.859375q-0.78125 0.671875 -1.921875 0.671875q-1.40625 0 -2.28125 -0.921875q-0.859375 -0.9375 -0.859375 -2.65625q0 -1.125 0.375 -1.96875q0.375 -0.84375 1.125 -1.25q0.765625 -0.421875 1.65625 -0.421875q1.125 0 1.84375 0.578125q0.71875 0.5625 0.921875 1.609375l-1.140625 0.171875q-0.171875 -0.703125 -0.59375 -1.046875q-0.40625 -0.359375 -0.984375 -0.359375q-0.890625 0 -1.453125 0.640625q-0.546875 0.640625 -0.546875 2.0q0 1.40625 0.53125 2.03125q0.546875 0.625 1.40625 0.625q0.6875 0 1.140625 -0.421875q0.46875 -0.421875 0.59375 -1.296875zm4.7109375 1.484375l0.171875 1.03125q-0.5 0.109375 -0.890625 0.109375q-0.640625 0 -1.0 -0.203125q-0.34375 -0.203125 -0.484375 -0.53125q-0.140625 -0.328125 -0.140625 -1.390625l0 -3.96875l-0.859375 0l0 -0.90625l0.859375 0l0 -1.71875l1.171875 -0.703125l0 2.421875l1.171875 0l0 0.90625l-1.171875 0l0 4.046875q0 0.5 0.046875 0.640625q0.0625 0.140625 0.203125 0.234375q0.140625 0.078125 0.40625 0.078125q0.203125 0 0.515625 -0.046875zm1.1561279 -7.140625l0 -1.359375l1.171875 0l0 1.359375l-1.171875 0zm0 8.1875l0 -6.90625l1.171875 0l0 6.90625l-1.171875 0zm2.507965 -3.453125q0 -1.921875 1.078125 -2.84375q0.8905945 -0.765625 2.1718445 -0.765625q1.421875 0 2.328125 0.9375q0.90625 0.921875 0.90625 2.578125q0 1.328125 -0.40625 2.09375q-0.390625 0.765625 -1.15625 1.1875q-0.765625 0.421875 -1.671875 0.421875q-1.453125 0 -2.3593445 -0.921875q-0.890625 -0.9375 -0.890625 -2.6875zm1.203125 0q0 1.328125 0.5780945 1.984375q0.59375 0.65625 1.46875 0.65625q0.875 0 1.453125 -0.65625q0.578125 -0.671875 0.578125 -2.03125q0 -1.28125 -0.59375 -1.9375q-0.578125 -0.65625 -1.4375 -0.65625q-0.875 0 -1.46875 0.65625q-0.5780945 0.65625 -0.5780945 1.984375zm6.64682 3.453125l0 -6.90625l1.0625 0l0 0.984375q0.75 -1.140625 2.1875 -1.140625q0.625 0 1.15625 0.21875q0.53125 0.21875 0.78125 0.59375q0.265625 0.359375 0.375 0.859375q0.0625 0.328125 0.0625 1.140625l0 4.25l-1.171875 0l0 -4.203125q0 -0.71875 -0.140625 -1.0625q-0.140625 -0.359375 -0.484375 -0.5625q-0.34375 -0.21875 -0.8125 -0.21875q-0.75 0 -1.296875 0.46875q-0.546875 0.46875 -0.546875 1.796875l0 3.78125l-1.171875 0zm9.381226 2.65625l-2.59375 0l0 -0.984375l1.421875 0l0 -10.25l-1.421875 0l0 -0.96875l2.59375 0l0 12.203125z" fill-rule="nonzero"/><path fill="#efefef" d="m348.20554 86.53498l92.522675 0l0 25.683167l-92.522675 0z" fill-rule="evenodd"/><path stroke="#000000" stroke-width="2.0" stroke-linejoin="round" stroke-linecap="butt" d="m348.20554 86.53498l92.522675 0l0 25.683167l-92.522675 0z" fill-rule="evenodd"/><path fill="#000000" d="m361.29788 106.83281l0 -12.203125l2.578125 0l0 0.96875l-1.40625 0l0 10.25l1.40625 0l0 0.984375l-2.578125 0zm3.6873474 -10.84375l0 -1.359375l1.171875 0l0 1.359375l-1.171875 0zm0 8.1875l0 -6.90625l1.171875 0l0 6.90625l-1.171875 0zm2.945465 0l0 -6.90625l1.0625 0l0 0.984375q0.75 -1.140625 2.1875 -1.140625q0.625 0 1.15625 0.21875q0.53125 0.21875 0.78125 0.59375q0.265625 0.359375 0.375 0.859375q0.0625 0.328125 0.0625 1.140625l0 4.25l-1.171875 0l0 -4.203125q0 -0.71875 -0.140625 -1.0625q-0.140625 -0.359375 -0.484375 -0.5625q-0.34375 -0.21875 -0.8125 -0.21875q-0.75 0 -1.296875 0.46875q-0.546875 0.46875 -0.546875 1.796875l0 3.78125l-1.171875 0zm6.9437256 -2.0625l1.15625 -0.1875q0.109375 0.703125 0.546875 1.078125q0.453125 0.359375 1.25 0.359375q0.8125 0 1.203125 -0.328125q0.390625 -0.328125 0.390625 -0.765625q0 -0.390625 -0.359375 -0.625q-0.234375 -0.15625 -1.1875 -0.390625q-1.296875 -0.328125 -1.796875 -0.5625q-0.484375 -0.25 -0.75 -0.65625q-0.25 -0.421875 -0.25 -0.9375q0 -0.453125 0.203125 -0.84375q0.21875 -0.40625 0.578125 -0.671875q0.28125 -0.1875 0.75 -0.328125q0.46875 -0.140625 1.015625 -0.140625q0.8125 0 1.421875 0.234375q0.609375 0.234375 0.90625 0.640625q0.296875 0.390625 0.40625 1.0625l-1.140625 0.15625q-0.078125 -0.53125 -0.453125 -0.828125q-0.375 -0.3125 -1.0625 -0.3125q-0.8125 0 -1.15625 0.265625q-0.34375 0.265625 -0.34375 0.625q0 0.234375 0.140625 0.421875q0.15625 0.1875 0.453125 0.3125q0.171875 0.0625 1.03125 0.296875q1.25 0.328125 1.734375 0.546875q0.5 0.203125 0.78125 0.609375q0.28125 0.40625 0.28125 1.0q0 0.59375 -0.34375 1.109375q-0.34375 0.515625 -1.0 0.796875q-0.640625 0.28125 -1.453125 0.28125q-1.34375 0 -2.046875 -0.5625q-0.703125 -0.5625 -0.90625 -1.65625zm9.6953125 1.015625l0.171875 1.03125q-0.5 0.109375 -0.890625 0.109375q-0.640625 0 -1.0 -0.203125q-0.34375 -0.203125 -0.484375 -0.53125q-0.140625 -0.328125 -0.140625 -1.390625l0 -3.96875l-0.859375 0l0 -0.90625l0.859375 0l0 -1.71875l1.171875 -0.703125l0 2.421875l1.171875 0l0 0.90625l-1.171875 0l0 4.046875q0 0.5 0.046875 0.640625q0.0625 0.140625 0.203125 0.234375q0.140625 0.078125 0.40625 0.078125q0.203125 0 0.515625 -0.046875zm1.1248779 1.046875l0 -6.90625l1.0625 0l0 1.046875q0.40625 -0.734375 0.734375 -0.96875q0.34375 -0.234375 0.765625 -0.234375q0.59375 0 1.203125 0.375l-0.40625 1.078125q-0.4375 -0.25 -0.859375 -0.25q-0.390625 0 -0.703125 0.234375q-0.296875 0.234375 -0.421875 0.640625q-0.203125 0.625 -0.203125 1.359375l0 3.625l-1.171875 0zm8.9852295 0l0 -1.015625q-0.8125 1.171875 -2.1875 1.171875q-0.609375 0 -1.140625 -0.234375q-0.53125 -0.234375 -0.796875 -0.578125q-0.25 -0.359375 -0.359375 -0.875q-0.0625 -0.34375 -0.0625 -1.09375l0 -4.28125l1.171875 0l0 3.828125q0 0.921875 0.0625 1.234375q0.109375 0.46875 0.46875 0.734375q0.359375 0.25 0.890625 0.25q0.515625 0 0.984375 -0.265625q0.46875 -0.265625 0.65625 -0.734375q0.1875 -0.46875 0.1875 -1.34375l0 -3.703125l1.171875 0l0 6.90625l-1.046875 0zm7.3968506 -2.53125l1.15625 0.15625q-0.1875 1.1875 -0.96875 1.859375q-0.78125 0.671875 -1.921875 0.671875q-1.40625 0 -2.28125 -0.921875q-0.859375 -0.9375 -0.859375 -2.65625q0 -1.125 0.375 -1.96875q0.375 -0.84375 1.125 -1.25q0.765625 -0.421875 1.65625 -0.421875q1.125 0 1.84375 0.578125q0.71875 0.5625 0.921875 1.609375l-1.140625 0.171875q-0.171875 -0.703125 -0.59375 -1.046875q-0.40625 -0.359375 -0.984375 -0.359375q-0.890625 0 -1.453125 0.640625q-0.546875 0.640625 -0.546875 2.0q0 1.40625 0.53125 2.03125q0.546875 0.625 1.40625 0.625q0.6875 0 1.140625 -0.421875q0.46875 -0.421875 0.59375 -1.296875zm4.7109375 1.484375l0.171875 1.03125q-0.5 0.109375 -0.890625 0.109375q-0.640625 0 -1.0 -0.203125q-0.34375 -0.203125 -0.484375 -0.53125q-0.140625 -0.328125 -0.140625 -1.390625l0 -3.96875l-0.859375 0l0 -0.90625l0.859375 0l0 -1.71875l1.171875 -0.703125l0 2.421875l1.171875 0l0 0.90625l-1.171875 0l0 4.046875q0 0.5 0.046875 0.640625q0.0625 0.140625 0.203125 0.234375q0.140625 0.078125 0.40625 0.078125q0.203125 0 0.515625 -0.046875zm1.1561279 -7.140625l0 -1.359375l1.171875 0l0 1.359375l-1.171875 0zm0 8.1875l0 -6.90625l1.171875 0l0 6.90625l-1.171875 0zm2.507965 -3.453125q0 -1.921875 1.078125 -2.84375q0.8905945 -0.765625 2.1718445 -0.765625q1.421875 0 2.328125 0.9375q0.90625 0.921875 0.90625 2.578125q0 1.328125 -0.40625 2.09375q-0.390625 0.765625 -1.15625 1.1875q-0.765625 0.421875 -1.671875 0.421875q-1.453125 0 -2.3593445 -0.921875q-0.890625 -0.9375 -0.890625 -2.6875zm1.203125 0q0 1.328125 0.5780945 1.984375q0.59375 0.65625 1.46875 0.65625q0.875 0 1.453125 -0.65625q0.578125 -0.671875 0.578125 -2.03125q0 -1.28125 -0.59375 -1.9375q-0.578125 -0.65625 -1.4375 -0.65625q-0.875 0 -1.46875 0.65625q-0.5780945 0.65625 -0.5780945 1.984375zm6.64682 3.453125l0 -6.90625l1.0625 0l0 0.984375q0.75 -1.140625 2.1875 -1.140625q0.625 0 1.15625 0.21875q0.53125 0.21875 0.78125 0.59375q0.265625 0.359375 0.375 0.859375q0.0625 0.328125 0.0625 1.140625l0 4.25l-1.171875 0l0 -4.203125q0 -0.71875 -0.140625 -1.0625q-0.140625 -0.359375 -0.484375 -0.5625q-0.34375 -0.21875 -0.8125 -0.21875q-0.75 0 -1.296875 0.46875q-0.546875 0.46875 -0.546875 1.796875l0 3.78125l-1.171875 0zm9.381226 2.65625l-2.59375 0l0 -0.984375l1.421875 0l0 -10.25l-1.421875 0l0 -0.96875l2.59375 0l0 12.203125z" fill-rule="nonzero"/><path fill="#ffd966" d="m360.85138 74.702835l92.522675 0l0 25.683167l-92.522675 0z" fill-rule="evenodd"/><path stroke="#000000" stroke-width="2.0" stroke-linejoin="round" stroke-linecap="butt" d="m360.85138 74.702835l92.522675 0l0 25.683167l-92.522675 0z" fill-rule="evenodd"/><path fill="#000000" d="m395.94403 82.7663q1.390625 0 2.171875 0.984375q0.921875 1.171875 0.921875 3.890625q0 2.703125 -0.9375 3.890625q-0.765625 0.96875 -2.15625 0.96875q-1.390625 0 -2.25 -1.0625q-0.84375 -1.078125 -0.84375 -3.8125q0 -2.703125 0.9375 -3.890625q0.765625 -0.96875 2.15625 -0.96875zm0 1.515625q-0.328125 0 -0.59375 0.21875q-0.25 0.203125 -0.40625 0.75q-0.1875 0.703125 -0.1875 2.390625q0 1.671875 0.171875 2.3125q0.171875 0.625 0.421875 0.828125q0.265625 0.203125 0.59375 0.203125q0.328125 0 0.59375 -0.203125q0.265625 -0.21875 0.40625 -0.765625q0.1875 -0.703125 0.1875 -2.375q0 -1.6875 -0.171875 -2.3125q-0.171875 -0.625 -0.4375 -0.828125q-0.25 -0.21875 -0.578125 -0.21875zm7.4124756 -1.515625q1.390625 0 2.171875 0.984375q0.921875 1.171875 0.921875 3.890625q0 2.703125 -0.9375 3.890625q-0.765625 0.96875 -2.15625 0.96875q-1.390625 0 -2.25 -1.0625q-0.84375 -1.078125 -0.84375 -3.8125q0 -2.703125 0.9375 -3.890625q0.765625 -0.96875 2.15625 -0.96875zm0 1.515625q-0.328125 0 -0.59375 0.21875q-0.25 0.203125 -0.40625 0.75q-0.1875 0.703125 -0.1875 2.390625q0 1.671875 0.171875 2.3125q0.171875 0.625 0.421875 0.828125q0.265625 0.203125 0.59375 0.203125q0.328125 0 0.59375 -0.203125q0.265625 -0.21875 0.40625 -0.765625q0.1875 -0.703125 0.1875 -2.375q0 -1.6875 -0.171875 -2.3125q-0.171875 -0.625 -0.4375 -0.828125q-0.25 -0.21875 -0.578125 -0.21875zm7.4124756 -1.515625q1.390625 0 2.171875 0.984375q0.921875 1.171875 0.921875 3.890625q0 2.703125 -0.9375 3.890625q-0.765625 0.96875 -2.15625 0.96875q-1.390625 0 -2.25 -1.0625q-0.84375 -1.078125 -0.84375 -3.8125q0 -2.703125 0.9375 -3.890625q0.765625 -0.96875 2.15625 -0.96875zm0 1.515625q-0.328125 0 -0.59375 0.21875q-0.25 0.203125 -0.40625 0.75q-0.1875 0.703125 -0.1875 2.390625q0 1.671875 0.171875 2.3125q0.171875 0.625 0.421875 0.828125q0.265625 0.203125 0.59375 0.203125q0.328125 0 0.59375 -0.203125q0.265625 -0.21875 0.40625 -0.765625q0.1875 -0.703125 0.1875 -2.375q0 -1.6875 -0.171875 -2.3125q-0.171875 -0.625 -0.4375 -0.828125q-0.25 -0.21875 -0.578125 -0.21875zm9.006226 8.0625l-1.828125 0l0 -6.890625q-1.0 0.9375 -2.375 1.390625l0 -1.671875q0.71875 -0.234375 1.5625 -0.875q0.84375 -0.65625 1.15625 -1.53125l1.484375 0l0 9.578125z" fill-rule="nonzero"/><path fill="#efefef" d="m360.85074 100.37285l92.522644 0l0 25.683167l-92.522644 0z" fill-rule="evenodd"/><path stroke="#000000" stroke-width="2.0" stroke-linejoin="round" stroke-linecap="butt" d="m360.85074 100.37285l92.522644 0l0 25.683167l-92.522644 0z" fill-rule="evenodd"/><path fill="#000000" d="m373.94305 120.67068l0 -12.203125l2.578125 0l0 0.96875l-1.40625 0l0 10.25l1.40625 0l0 0.984375l-2.578125 0zm3.6873474 -10.84375l0 -1.359375l1.171875 0l0 1.359375l-1.171875 0zm0 8.1875l0 -6.90625l1.171875 0l0 6.90625l-1.171875 0zm2.945465 0l0 -6.90625l1.0625 0l0 0.984375q0.75 -1.140625 2.1875 -1.140625q0.625 0 1.15625 0.21875q0.53125 0.21875 0.78125 0.59375q0.265625 0.359375 0.375 0.859375q0.0625 0.328125 0.0625 1.140625l0 4.25l-1.171875 0l0 -4.203125q0 -0.71875 -0.140625 -1.0625q-0.140625 -0.359375 -0.484375 -0.5625q-0.34375 -0.21875 -0.8125 -0.21875q-0.75 0 -1.296875 0.46875q-0.546875 0.46875 -0.546875 1.796875l0 3.78125l-1.171875 0zm6.9437256 -2.0625l1.15625 -0.1875q0.109375 0.703125 0.546875 1.078125q0.453125 0.359375 1.25 0.359375q0.8125 0 1.203125 -0.328125q0.390625 -0.328125 0.390625 -0.765625q0 -0.390625 -0.359375 -0.625q-0.234375 -0.15625 -1.1875 -0.390625q-1.296875 -0.328125 -1.796875 -0.5625q-0.484375 -0.25 -0.75 -0.65625q-0.25 -0.421875 -0.25 -0.9375q0 -0.453125 0.203125 -0.84375q0.21875 -0.40625 0.578125 -0.671875q0.28125 -0.1875 0.75 -0.328125q0.46875 -0.140625 1.015625 -0.140625q0.8125 0 1.421875 0.234375q0.609375 0.234375 0.90625 0.640625q0.296875 0.390625 0.40625 1.0625l-1.140625 0.15625q-0.078125 -0.53125 -0.453125 -0.828125q-0.375 -0.3125 -1.0625 -0.3125q-0.8125 0 -1.15625 0.265625q-0.34375 0.265625 -0.34375 0.625q0 0.234375 0.140625 0.421875q0.15625 0.1875 0.453125 0.3125q0.171875 0.0625 1.03125 0.296875q1.25 0.328125 1.734375 0.546875q0.5 0.203125 0.78125 0.609375q0.28125 0.40625 0.28125 1.0q0 0.59375 -0.34375 1.109375q-0.34375 0.515625 -1.0 0.796875q-0.640625 0.28125 -1.453125 0.28125q-1.34375 0 -2.046875 -0.5625q-0.703125 -0.5625 -0.90625 -1.65625zm9.6953125 1.015625l0.171875 1.03125q-0.5 0.109375 -0.890625 0.109375q-0.640625 0 -1.0 -0.203125q-0.34375 -0.203125 -0.484375 -0.53125q-0.140625 -0.328125 -0.140625 -1.390625l0 -3.96875l-0.859375 0l0 -0.90625l0.859375 0l0 -1.71875l1.171875 -0.703125l0 2.421875l1.171875 0l0 0.90625l-1.171875 0l0 4.046875q0 0.5 0.046875 0.640625q0.0625 0.140625 0.203125 0.234375q0.140625 0.078125 0.40625 0.078125q0.203125 0 0.515625 -0.046875zm1.1248779 1.046875l0 -6.90625l1.0625 0l0 1.046875q0.40625 -0.734375 0.734375 -0.96875q0.34375 -0.234375 0.765625 -0.234375q0.59375 0 1.203125 0.375l-0.40625 1.078125q-0.4375 -0.25 -0.859375 -0.25q-0.390625 0 -0.703125 0.234375q-0.296875 0.234375 -0.421875 0.640625q-0.203125 0.625 -0.203125 1.359375l0 3.625l-1.171875 0zm8.9852295 0l0 -1.015625q-0.8125 1.171875 -2.1875 1.171875q-0.609375 0 -1.140625 -0.234375q-0.53125 -0.234375 -0.796875 -0.578125q-0.25 -0.359375 -0.359375 -0.875q-0.0625 -0.34375 -0.0625 -1.09375l0 -4.28125l1.171875 0l0 3.828125q0 0.921875 0.0625 1.234375q0.109375 0.46875 0.46875 0.734375q0.359375 0.25 0.890625 0.25q0.515625 0 0.984375 -0.265625q0.46875 -0.265625 0.65625 -0.734375q0.1875 -0.46875 0.1875 -1.34375l0 -3.703125l1.171875 0l0 6.90625l-1.046875 0zm7.3968506 -2.53125l1.15625 0.15625q-0.1875 1.1875 -0.96875 1.859375q-0.78125 0.671875 -1.921875 0.671875q-1.40625 0 -2.28125 -0.921875q-0.859375 -0.9375 -0.859375 -2.65625q0 -1.125 0.375 -1.96875q0.375 -0.84375 1.125 -1.25q0.765625 -0.421875 1.65625 -0.421875q1.125 0 1.84375 0.578125q0.71875 0.5625 0.921875 1.609375l-1.140625 0.171875q-0.171875 -0.703125 -0.59375 -1.046875q-0.40625 -0.359375 -0.984375 -0.359375q-0.890625 0 -1.453125 0.640625q-0.546875 0.640625 -0.546875 2.0q0 1.40625 0.53125 2.03125q0.546875 0.625 1.40625 0.625q0.6875 0 1.140625 -0.421875q0.46875 -0.421875 0.59375 -1.296875zm4.7109375 1.484375l0.171875 1.03125q-0.5 0.109375 -0.890625 0.109375q-0.640625 0 -1.0 -0.203125q-0.34375 -0.203125 -0.484375 -0.53125q-0.140625 -0.328125 -0.140625 -1.390625l0 -3.96875l-0.859375 0l0 -0.90625l0.859375 0l0 -1.71875l1.171875 -0.703125l0 2.421875l1.171875 0l0 0.90625l-1.171875 0l0 4.046875q0 0.5 0.046875 0.640625q0.0625 0.140625 0.203125 0.234375q0.140625 0.078125 0.40625 0.078125q0.203125 0 0.515625 -0.046875zm1.1561279 -7.140625l0 -1.359375l1.171875 0l0 1.359375l-1.171875 0zm0 8.1875l0 -6.90625l1.171875 0l0 6.90625l-1.171875 0zm2.507965 -3.453125q0 -1.921875 1.078125 -2.84375q0.890625 -0.765625 2.171875 -0.765625q1.421875 0 2.328125 0.9375q0.90625 0.921875 0.90625 2.578125q0 1.328125 -0.40625 2.09375q-0.390625 0.765625 -1.15625 1.1875q-0.765625 0.421875 -1.671875 0.421875q-1.453125 0 -2.359375 -0.921875q-0.890625 -0.9375 -0.890625 -2.6875zm1.203125 0q0 1.328125 0.578125 1.984375q0.59375 0.65625 1.46875 0.65625q0.875 0 1.453125 -0.65625q0.578125 -0.671875 0.578125 -2.03125q0 -1.28125 -0.59375 -1.9375q-0.578125 -0.65625 -1.4375 -0.65625q-0.875 0 -1.46875 0.65625q-0.578125 0.65625 -0.578125 1.984375zm6.6468506 3.453125l0 -6.90625l1.0625 0l0 0.984375q0.75 -1.140625 2.1875 -1.140625q0.625 0 1.15625 0.21875q0.53125 0.21875 0.78125 0.59375q0.265625 0.359375 0.375 0.859375q0.0625 0.328125 0.0625 1.140625l0 4.25l-1.171875 0l0 -4.203125q0 -0.71875 -0.140625 -1.0625q-0.140625 -0.359375 -0.484375 -0.5625q-0.34375 -0.21875 -0.8125 -0.21875q-0.75 0 -1.296875 0.46875q-0.546875 0.46875 -0.546875 1.796875l0 3.78125l-1.171875 0zm9.381226 2.65625l-2.59375 0l0 -0.984375l1.421875 0l0 -10.25l-1.421875 0l0 -0.96875l2.59375 0l0 12.203125z" fill-rule="nonzero"/><path fill="#efefef" d="m360.85074 126.06039l92.522644 0l0 25.683159l-92.522644 0z" fill-rule="evenodd"/><path stroke="#000000" stroke-width="2.0" stroke-linejoin="round" stroke-linecap="butt" d="m360.85074 126.06039l92.522644 0l0 25.683159l-92.522644 0z" fill-rule="evenodd"/><path fill="#000000" d="m373.94305 146.35822l0 -12.203125l2.578125 0l0 0.96875l-1.40625 0l0 10.25l1.40625 0l0 0.984375l-2.578125 0zm3.6873474 -10.84375l0 -1.359375l1.171875 0l0 1.359375l-1.171875 0zm0 8.1875l0 -6.90625l1.171875 0l0 6.90625l-1.171875 0zm2.945465 0l0 -6.90625l1.0625 0l0 0.984375q0.75 -1.140625 2.1875 -1.140625q0.625 0 1.15625 0.21875q0.53125 0.21875 0.78125 0.59375q0.265625 0.359375 0.375 0.859375q0.0625 0.328125 0.0625 1.140625l0 4.25l-1.171875 0l0 -4.203125q0 -0.71875 -0.140625 -1.0625q-0.140625 -0.359375 -0.484375 -0.5625q-0.34375 -0.21875 -0.8125 -0.21875q-0.75 0 -1.296875 0.46875q-0.546875 0.46875 -0.546875 1.796875l0 3.78125l-1.171875 0zm6.9437256 -2.0625l1.15625 -0.1875q0.109375 0.703125 0.546875 1.078125q0.453125 0.359375 1.25 0.359375q0.8125 0 1.203125 -0.328125q0.390625 -0.328125 0.390625 -0.765625q0 -0.390625 -0.359375 -0.625q-0.234375 -0.15625 -1.1875 -0.390625q-1.296875 -0.328125 -1.796875 -0.5625q-0.484375 -0.25 -0.75 -0.65625q-0.25 -0.421875 -0.25 -0.9375q0 -0.453125 0.203125 -0.84375q0.21875 -0.40625 0.578125 -0.671875q0.28125 -0.1875 0.75 -0.328125q0.46875 -0.140625 1.015625 -0.140625q0.8125 0 1.421875 0.234375q0.609375 0.234375 0.90625 0.640625q0.296875 0.390625 0.40625 1.0625l-1.140625 0.15625q-0.078125 -0.53125 -0.453125 -0.828125q-0.375 -0.3125 -1.0625 -0.3125q-0.8125 0 -1.15625 0.265625q-0.34375 0.265625 -0.34375 0.625q0 0.234375 0.140625 0.421875q0.15625 0.1875 0.453125 0.3125q0.171875 0.0625 1.03125 0.296875q1.25 0.328125 1.734375 0.546875q0.5 0.203125 0.78125 0.609375q0.28125 0.40625 0.28125 1.0q0 0.59375 -0.34375 1.109375q-0.34375 0.515625 -1.0 0.796875q-0.640625 0.28125 -1.453125 0.28125q-1.34375 0 -2.046875 -0.5625q-0.703125 -0.5625 -0.90625 -1.65625zm9.6953125 1.015625l0.171875 1.03125q-0.5 0.109375 -0.890625 0.109375q-0.640625 0 -1.0 -0.203125q-0.34375 -0.203125 -0.484375 -0.53125q-0.140625 -0.328125 -0.140625 -1.390625l0 -3.96875l-0.859375 0l0 -0.90625l0.859375 0l0 -1.71875l1.171875 -0.703125l0 2.421875l1.171875 0l0 0.90625l-1.171875 0l0 4.046875q0 0.5 0.046875 0.640625q0.0625 0.140625 0.203125 0.234375q0.140625 0.078125 0.40625 0.078125q0.203125 0 0.515625 -0.046875zm1.1248779 1.046875l0 -6.90625l1.0625 0l0 1.046875q0.40625 -0.734375 0.734375 -0.96875q0.34375 -0.234375 0.765625 -0.234375q0.59375 0 1.203125 0.375l-0.40625 1.078125q-0.4375 -0.25 -0.859375 -0.25q-0.390625 0 -0.703125 0.234375q-0.296875 0.234375 -0.421875 0.640625q-0.203125 0.625 -0.203125 1.359375l0 3.625l-1.171875 0zm8.9852295 0l0 -1.015625q-0.8125 1.171875 -2.1875 1.171875q-0.609375 0 -1.140625 -0.234375q-0.53125 -0.234375 -0.796875 -0.578125q-0.25 -0.359375 -0.359375 -0.875q-0.0625 -0.34375 -0.0625 -1.09375l0 -4.28125l1.171875 0l0 3.828125q0 0.921875 0.0625 1.234375q0.109375 0.46875 0.46875 0.734375q0.359375 0.25 0.890625 0.25q0.515625 0 0.984375 -0.265625q0.46875 -0.265625 0.65625 -0.734375q0.1875 -0.46875 0.1875 -1.34375l0 -3.703125l1.171875 0l0 6.90625l-1.046875 0zm7.3968506 -2.53125l1.15625 0.15625q-0.1875 1.1875 -0.96875 1.859375q-0.78125 0.671875 -1.921875 0.671875q-1.40625 0 -2.28125 -0.921875q-0.859375 -0.9375 -0.859375 -2.65625q0 -1.125 0.375 -1.96875q0.375 -0.84375 1.125 -1.25q0.765625 -0.421875 1.65625 -0.421875q1.125 0 1.84375 0.578125q0.71875 0.5625 0.921875 1.609375l-1.140625 0.171875q-0.171875 -0.703125 -0.59375 -1.046875q-0.40625 -0.359375 -0.984375 -0.359375q-0.890625 0 -1.453125 0.640625q-0.546875 0.640625 -0.546875 2.0q0 1.40625 0.53125 2.03125q0.546875 0.625 1.40625 0.625q0.6875 0 1.140625 -0.421875q0.46875 -0.421875 0.59375 -1.296875zm4.7109375 1.484375l0.171875 1.03125q-0.5 0.109375 -0.890625 0.109375q-0.640625 0 -1.0 -0.203125q-0.34375 -0.203125 -0.484375 -0.53125q-0.140625 -0.328125 -0.140625 -1.390625l0 -3.96875l-0.859375 0l0 -0.90625l0.859375 0l0 -1.71875l1.171875 -0.703125l0 2.421875l1.171875 0l0 0.90625l-1.171875 0l0 4.046875q0 0.5 0.046875 0.640625q0.0625 0.140625 0.203125 0.234375q0.140625 0.078125 0.40625 0.078125q0.203125 0 0.515625 -0.046875zm1.1561279 -7.140625l0 -1.359375l1.171875 0l0 1.359375l-1.171875 0zm0 8.1875l0 -6.90625l1.171875 0l0 6.90625l-1.171875 0zm2.507965 -3.453125q0 -1.921875 1.078125 -2.84375q0.890625 -0.765625 2.171875 -0.765625q1.421875 0 2.328125 0.9375q0.90625 0.921875 0.90625 2.578125q0 1.328125 -0.40625 2.09375q-0.390625 0.765625 -1.15625 1.1875q-0.765625 0.421875 -1.671875 0.421875q-1.453125 0 -2.359375 -0.921875q-0.890625 -0.9375 -0.890625 -2.6875zm1.203125 0q0 1.328125 0.578125 1.984375q0.59375 0.65625 1.46875 0.65625q0.875 0 1.453125 -0.65625q0.578125 -0.671875 0.578125 -2.03125q0 -1.28125 -0.59375 -1.9375q-0.578125 -0.65625 -1.4375 -0.65625q-0.875 0 -1.46875 0.65625q-0.578125 0.65625 -0.578125 1.984375zm6.6468506 3.453125l0 -6.90625l1.0625 0l0 0.984375q0.75 -1.140625 2.1875 -1.140625q0.625 0 1.15625 0.21875q0.53125 0.21875 0.78125 0.59375q0.265625 0.359375 0.375 0.859375q0.0625 0.328125 0.0625 1.140625l0 4.25l-1.171875 0l0 -4.203125q0 -0.71875 -0.140625 -1.0625q-0.140625 -0.359375 -0.484375 -0.5625q-0.34375 -0.21875 -0.8125 -0.21875q-0.75 0 -1.296875 0.46875q-0.546875 0.46875 -0.546875 1.796875l0 3.78125l-1.171875 0zm9.381226 2.65625l-2.59375 0l0 -0.984375l1.421875 0l0 -10.25l-1.421875 0l0 -0.96875l2.59375 0l0 12.203125z" fill-rule="nonzero"/><path fill="#efefef" d="m360.85074 151.74792l92.522644 0l0 25.683167l-92.522644 0z" fill-rule="evenodd"/><path stroke="#000000" stroke-width="2.0" stroke-linejoin="round" stroke-linecap="butt" d="m360.85074 151.74792l92.522644 0l0 25.683167l-92.522644 0z" fill-rule="evenodd"/><path fill="#000000" d="m373.94305 172.04576l0 -12.203125l2.578125 0l0 0.96875l-1.40625 0l0 10.25l1.40625 0l0 0.984375l-2.578125 0zm3.6873474 -10.84375l0 -1.359375l1.171875 0l0 1.359375l-1.171875 0zm0 8.1875l0 -6.90625l1.171875 0l0 6.90625l-1.171875 0zm2.945465 0l0 -6.90625l1.0625 0l0 0.984375q0.75 -1.140625 2.1875 -1.140625q0.625 0 1.15625 0.21875q0.53125 0.21875 0.78125 0.59375q0.265625 0.359375 0.375 0.859375q0.0625 0.328125 0.0625 1.140625l0 4.25l-1.171875 0l0 -4.203125q0 -0.71875 -0.140625 -1.0625q-0.140625 -0.359375 -0.484375 -0.5625q-0.34375 -0.21875 -0.8125 -0.21875q-0.75 0 -1.296875 0.46875q-0.546875 0.46875 -0.546875 1.796875l0 3.78125l-1.171875 0zm6.9437256 -2.0625l1.15625 -0.1875q0.109375 0.703125 0.546875 1.078125q0.453125 0.359375 1.25 0.359375q0.8125 0 1.203125 -0.328125q0.390625 -0.328125 0.390625 -0.765625q0 -0.390625 -0.359375 -0.625q-0.234375 -0.15625 -1.1875 -0.390625q-1.296875 -0.328125 -1.796875 -0.5625q-0.484375 -0.25 -0.75 -0.65625q-0.25 -0.421875 -0.25 -0.9375q0 -0.453125 0.203125 -0.84375q0.21875 -0.40625 0.578125 -0.671875q0.28125 -0.1875 0.75 -0.328125q0.46875 -0.140625 1.015625 -0.140625q0.8125 0 1.421875 0.234375q0.609375 0.234375 0.90625 0.640625q0.296875 0.390625 0.40625 1.0625l-1.140625 0.15625q-0.078125 -0.53125 -0.453125 -0.828125q-0.375 -0.3125 -1.0625 -0.3125q-0.8125 0 -1.15625 0.265625q-0.34375 0.265625 -0.34375 0.625q0 0.234375 0.140625 0.421875q0.15625 0.1875 0.453125 0.3125q0.171875 0.0625 1.03125 0.296875q1.25 0.328125 1.734375 0.546875q0.5 0.203125 0.78125 0.609375q0.28125 0.40625 0.28125 1.0q0 0.59375 -0.34375 1.109375q-0.34375 0.515625 -1.0 0.796875q-0.640625 0.28125 -1.453125 0.28125q-1.34375 0 -2.046875 -0.5625q-0.703125 -0.5625 -0.90625 -1.65625zm9.6953125 1.015625l0.171875 1.03125q-0.5 0.109375 -0.890625 0.109375q-0.640625 0 -1.0 -0.203125q-0.34375 -0.203125 -0.484375 -0.53125q-0.140625 -0.328125 -0.140625 -1.390625l0 -3.96875l-0.859375 0l0 -0.90625l0.859375 0l0 -1.71875l1.171875 -0.703125l0 2.421875l1.171875 0l0 0.90625l-1.171875 0l0 4.046875q0 0.5 0.046875 0.640625q0.0625 0.140625 0.203125 0.234375q0.140625 0.078125 0.40625 0.078125q0.203125 0 0.515625 -0.046875zm1.1248779 1.046875l0 -6.90625l1.0625 0l0 1.046875q0.40625 -0.734375 0.734375 -0.96875q0.34375 -0.234375 0.765625 -0.234375q0.59375 0 1.203125 0.375l-0.40625 1.078125q-0.4375 -0.25 -0.859375 -0.25q-0.390625 0 -0.703125 0.234375q-0.296875 0.234375 -0.421875 0.640625q-0.203125 0.625 -0.203125 1.359375l0 3.625l-1.171875 0zm8.9852295 0l0 -1.015625q-0.8125 1.171875 -2.1875 1.171875q-0.609375 0 -1.140625 -0.234375q-0.53125 -0.234375 -0.796875 -0.578125q-0.25 -0.359375 -0.359375 -0.875q-0.0625 -0.34375 -0.0625 -1.09375l0 -4.28125l1.171875 0l0 3.828125q0 0.921875 0.0625 1.234375q0.109375 0.46875 0.46875 0.734375q0.359375 0.25 0.890625 0.25q0.515625 0 0.984375 -0.265625q0.46875 -0.265625 0.65625 -0.734375q0.1875 -0.46875 0.1875 -1.34375l0 -3.703125l1.171875 0l0 6.90625l-1.046875 0zm7.3968506 -2.53125l1.15625 0.15625q-0.1875 1.1875 -0.96875 1.859375q-0.78125 0.671875 -1.921875 0.671875q-1.40625 0 -2.28125 -0.921875q-0.859375 -0.9375 -0.859375 -2.65625q0 -1.125 0.375 -1.96875q0.375 -0.84375 1.125 -1.25q0.765625 -0.421875 1.65625 -0.421875q1.125 0 1.84375 0.578125q0.71875 0.5625 0.921875 1.609375l-1.140625 0.171875q-0.171875 -0.703125 -0.59375 -1.046875q-0.40625 -0.359375 -0.984375 -0.359375q-0.890625 0 -1.453125 0.640625q-0.546875 0.640625 -0.546875 2.0q0 1.40625 0.53125 2.03125q0.546875 0.625 1.40625 0.625q0.6875 0 1.140625 -0.421875q0.46875 -0.421875 0.59375 -1.296875zm4.7109375 1.484375l0.171875 1.03125q-0.5 0.109375 -0.890625 0.109375q-0.640625 0 -1.0 -0.203125q-0.34375 -0.203125 -0.484375 -0.53125q-0.140625 -0.328125 -0.140625 -1.390625l0 -3.96875l-0.859375 0l0 -0.90625l0.859375 0l0 -1.71875l1.171875 -0.703125l0 2.421875l1.171875 0l0 0.90625l-1.171875 0l0 4.046875q0 0.5 0.046875 0.640625q0.0625 0.140625 0.203125 0.234375q0.140625 0.078125 0.40625 0.078125q0.203125 0 0.515625 -0.046875zm1.1561279 -7.140625l0 -1.359375l1.171875 0l0 1.359375l-1.171875 0zm0 8.1875l0 -6.90625l1.171875 0l0 6.90625l-1.171875 0zm2.507965 -3.453125q0 -1.921875 1.078125 -2.84375q0.890625 -0.765625 2.171875 -0.765625q1.421875 0 2.328125 0.9375q0.90625 0.921875 0.90625 2.578125q0 1.328125 -0.40625 2.09375q-0.390625 0.765625 -1.15625 1.1875q-0.765625 0.421875 -1.671875 0.421875q-1.453125 0 -2.359375 -0.921875q-0.890625 -0.9375 -0.890625 -2.6875zm1.203125 0q0 1.328125 0.578125 1.984375q0.59375 0.65625 1.46875 0.65625q0.875 0 1.453125 -0.65625q0.578125 -0.671875 0.578125 -2.03125q0 -1.28125 -0.59375 -1.9375q-0.578125 -0.65625 -1.4375 -0.65625q-0.875 0 -1.46875 0.65625q-0.578125 0.65625 -0.578125 1.984375zm6.6468506 3.453125l0 -6.90625l1.0625 0l0 0.984375q0.75 -1.140625 2.1875 -1.140625q0.625 0 1.15625 0.21875q0.53125 0.21875 0.78125 0.59375q0.265625 0.359375 0.375 0.859375q0.0625 0.328125 0.0625 1.140625l0 4.25l-1.171875 0l0 -4.203125q0 -0.71875 -0.140625 -1.0625q-0.140625 -0.359375 -0.484375 -0.5625q-0.34375 -0.21875 -0.8125 -0.21875q-0.75 0 -1.296875 0.46875q-0.546875 0.46875 -0.546875 1.796875l0 3.78125l-1.171875 0zm9.381226 2.65625l-2.59375 0l0 -0.984375l1.421875 0l0 -10.25l-1.421875 0l0 -0.96875l2.59375 0l0 12.203125z" fill-rule="nonzero"/><path fill="#6fa8dc" d="m370.46408 140.27698l92.522675 0l0 25.683167l-92.522675 0z" fill-rule="evenodd"/><path stroke="#000000" stroke-width="2.0" stroke-linejoin="round" stroke-linecap="butt" d="m370.46408 140.27698l92.522675 0l0 25.683167l-92.522675 0z" fill-rule="evenodd"/><path fill="#000000" d="m405.92456 148.34044q1.390625 0 2.171875 0.984375q0.921875 1.171875 0.921875 3.890625q0 2.703125 -0.9375 3.890625q-0.765625 0.96875 -2.15625 0.96875q-1.390625 0 -2.25 -1.0625q-0.84375 -1.078125 -0.84375 -3.8125q0 -2.703125 0.9375 -3.890625q0.765625 -0.96875 2.15625 -0.96875zm0 1.515625q-0.328125 0 -0.59375 0.21875q-0.25 0.203125 -0.40625 0.75q-0.1875 0.703125 -0.1875 2.390625q0 1.671875 0.171875 2.3125q0.171875 0.625 0.421875 0.828125q0.265625 0.203125 0.59375 0.203125q0.328125 0 0.59375 -0.203125q0.265625 -0.21875 0.40625 -0.765625q0.1875 -0.703125 0.1875 -2.375q0 -1.6875 -0.171875 -2.3125q-0.171875 -0.625 -0.4375 -0.828125q-0.25 -0.21875 -0.578125 -0.21875zm9.006226 8.0625l-1.828125 0l0 -6.890625q-1.0 0.9375 -2.375 1.390625l0 -1.671875q0.71875 -0.234375 1.5625 -0.875q0.84375 -0.65625 1.15625 -1.53125l1.484375 0l0 9.578125zm6.6767883 0l-1.828125 0l0 -6.890625q-1.0 0.9375 -2.375 1.390625l0 -1.671875q0.71875 -0.234375 1.5625 -0.875q0.84375 -0.65625 1.15625 -1.53125l1.484375 0l0 9.578125zm5.8187256 -9.578125q1.390625 0 2.171875 0.984375q0.921875 1.171875 0.921875 3.890625q0 2.703125 -0.9375 3.890625q-0.765625 0.96875 -2.15625 0.96875q-1.390625 0 -2.25 -1.0625q-0.84375 -1.078125 -0.84375 -3.8125q0 -2.703125 0.9375 -3.890625q0.765625 -0.96875 2.15625 -0.96875zm0 1.515625q-0.328125 0 -0.59375 0.21875q-0.25 0.203125 -0.40625 0.75q-0.1875 0.703125 -0.1875 2.390625q0 1.671875 0.171875 2.3125q0.171875 0.625 0.421875 0.828125q0.265625 0.203125 0.59375 0.203125q0.328125 0 0.59375 -0.203125q0.265625 -0.21875 0.40625 -0.765625q0.1875 -0.703125 0.1875 -2.375q0 -1.6875 -0.171875 -2.3125q-0.171875 -0.625 -0.4375 -0.828125q-0.25 -0.21875 -0.578125 -0.21875z" fill-rule="nonzero"/><path fill="#efefef" d="m370.46344 165.94699l92.522644 0l0 25.683167l-92.522644 0z" fill-rule="evenodd"/><path stroke="#000000" stroke-width="2.0" stroke-linejoin="round" stroke-linecap="butt" d="m370.46344 165.94699l92.522644 0l0 25.683167l-92.522644 0z" fill-rule="evenodd"/><path fill="#000000" d="m383.55576 186.24481l0 -12.203125l2.578125 0l0 0.96875l-1.40625 0l0 10.25l1.40625 0l0 0.984375l-2.578125 0zm3.6873474 -10.84375l0 -1.359375l1.171875 0l0 1.359375l-1.171875 0zm0 8.1875l0 -6.90625l1.171875 0l0 6.90625l-1.171875 0zm2.945465 0l0 -6.90625l1.0625 0l0 0.984375q0.75 -1.140625 2.1875 -1.140625q0.625 0 1.15625 0.21875q0.53125 0.21875 0.78125 0.59375q0.265625 0.359375 0.375 0.859375q0.0625 0.328125 0.0625 1.140625l0 4.25l-1.171875 0l0 -4.203125q0 -0.71875 -0.140625 -1.0625q-0.140625 -0.359375 -0.484375 -0.5625q-0.34375 -0.21875 -0.8125 -0.21875q-0.75 0 -1.296875 0.46875q-0.546875 0.46875 -0.546875 1.796875l0 3.78125l-1.171875 0zm6.9437256 -2.0625l1.15625 -0.1875q0.109375 0.703125 0.546875 1.078125q0.453125 0.359375 1.25 0.359375q0.8125 0 1.203125 -0.328125q0.390625 -0.328125 0.390625 -0.765625q0 -0.390625 -0.359375 -0.625q-0.234375 -0.15625 -1.1875 -0.390625q-1.296875 -0.328125 -1.796875 -0.5625q-0.484375 -0.25 -0.75 -0.65625q-0.25 -0.421875 -0.25 -0.9375q0 -0.453125 0.203125 -0.84375q0.21875 -0.40625 0.578125 -0.671875q0.28125 -0.1875 0.75 -0.328125q0.46875 -0.140625 1.015625 -0.140625q0.8125 0 1.421875 0.234375q0.609375 0.234375 0.90625 0.640625q0.296875 0.390625 0.40625 1.0625l-1.140625 0.15625q-0.078125 -0.53125 -0.453125 -0.828125q-0.375 -0.3125 -1.0625 -0.3125q-0.8125 0 -1.15625 0.265625q-0.34375 0.265625 -0.34375 0.625q0 0.234375 0.140625 0.421875q0.15625 0.1875 0.453125 0.3125q0.171875 0.0625 1.03125 0.296875q1.25 0.328125 1.734375 0.546875q0.5 0.203125 0.78125 0.609375q0.28125 0.40625 0.28125 1.0q0 0.59375 -0.34375 1.109375q-0.34375 0.515625 -1.0 0.796875q-0.640625 0.28125 -1.453125 0.28125q-1.34375 0 -2.046875 -0.5625q-0.703125 -0.5625 -0.90625 -1.65625zm9.6953125 1.015625l0.171875 1.03125q-0.5 0.109375 -0.890625 0.109375q-0.640625 0 -1.0 -0.203125q-0.34375 -0.203125 -0.484375 -0.53125q-0.140625 -0.328125 -0.140625 -1.390625l0 -3.96875l-0.859375 0l0 -0.90625l0.859375 0l0 -1.71875l1.171875 -0.703125l0 2.421875l1.171875 0l0 0.90625l-1.171875 0l0 4.046875q0 0.5 0.046875 0.640625q0.0625 0.140625 0.203125 0.234375q0.140625 0.078125 0.40625 0.078125q0.203125 0 0.515625 -0.046875zm1.1248779 1.046875l0 -6.90625l1.0625 0l0 1.046875q0.40625 -0.734375 0.734375 -0.96875q0.34375 -0.234375 0.765625 -0.234375q0.59375 0 1.203125 0.375l-0.40625 1.078125q-0.4375 -0.25 -0.859375 -0.25q-0.390625 0 -0.703125 0.234375q-0.296875 0.234375 -0.421875 0.640625q-0.203125 0.625 -0.203125 1.359375l0 3.625l-1.171875 0zm8.9852295 0l0 -1.015625q-0.8125 1.171875 -2.1875 1.171875q-0.609375 0 -1.140625 -0.234375q-0.53125 -0.234375 -0.796875 -0.578125q-0.25 -0.359375 -0.359375 -0.875q-0.0625 -0.34375 -0.0625 -1.09375l0 -4.28125l1.171875 0l0 3.828125q0 0.921875 0.0625 1.234375q0.109375 0.46875 0.46875 0.734375q0.359375 0.25 0.890625 0.25q0.515625 0 0.984375 -0.265625q0.46875 -0.265625 0.65625 -0.734375q0.1875 -0.46875 0.1875 -1.34375l0 -3.703125l1.171875 0l0 6.90625l-1.046875 0zm7.3968506 -2.53125l1.15625 0.15625q-0.1875 1.1875 -0.96875 1.859375q-0.78125 0.671875 -1.921875 0.671875q-1.40625 0 -2.28125 -0.921875q-0.859375 -0.9375 -0.859375 -2.65625q0 -1.125 0.375 -1.96875q0.375 -0.84375 1.125 -1.25q0.765625 -0.421875 1.65625 -0.421875q1.125 0 1.84375 0.578125q0.71875 0.5625 0.921875 1.609375l-1.140625 0.171875q-0.171875 -0.703125 -0.59375 -1.046875q-0.40625 -0.359375 -0.984375 -0.359375q-0.890625 0 -1.453125 0.640625q-0.546875 0.640625 -0.546875 2.0q0 1.40625 0.53125 2.03125q0.546875 0.625 1.40625 0.625q0.6875 0 1.140625 -0.421875q0.46875 -0.421875 0.59375 -1.296875zm4.7109375 1.484375l0.171875 1.03125q-0.5 0.109375 -0.890625 0.109375q-0.640625 0 -1.0 -0.203125q-0.34375 -0.203125 -0.484375 -0.53125q-0.140625 -0.328125 -0.140625 -1.390625l0 -3.96875l-0.859375 0l0 -0.90625l0.859375 0l0 -1.71875l1.171875 -0.703125l0 2.421875l1.171875 0l0 0.90625l-1.171875 0l0 4.046875q0 0.5 0.046875 0.640625q0.0625 0.140625 0.203125 0.234375q0.140625 0.078125 0.40625 0.078125q0.203125 0 0.515625 -0.046875zm1.1561279 -7.140625l0 -1.359375l1.171875 0l0 1.359375l-1.171875 0zm0 8.1875l0 -6.90625l1.171875 0l0 6.90625l-1.171875 0zm2.507965 -3.453125q0 -1.921875 1.078125 -2.84375q0.890625 -0.765625 2.171875 -0.765625q1.421875 0 2.328125 0.9375q0.90625 0.921875 0.90625 2.578125q0 1.328125 -0.40625 2.09375q-0.390625 0.765625 -1.15625 1.1875q-0.765625 0.421875 -1.671875 0.421875q-1.453125 0 -2.359375 -0.921875q-0.890625 -0.9375 -0.890625 -2.6875zm1.203125 0q0 1.328125 0.578125 1.984375q0.59375 0.65625 1.46875 0.65625q0.875 0 1.453125 -0.65625q0.578125 -0.671875 0.578125 -2.03125q0 -1.28125 -0.59375 -1.9375q-0.578125 -0.65625 -1.4375 -0.65625q-0.875 0 -1.46875 0.65625q-0.578125 0.65625 -0.578125 1.984375zm6.6468506 3.453125l0 -6.90625l1.0625 0l0 0.984375q0.75 -1.140625 2.1875 -1.140625q0.625 0 1.15625 0.21875q0.53125 0.21875 0.78125 0.59375q0.265625 0.359375 0.375 0.859375q0.0625 0.328125 0.0625 1.140625l0 4.25l-1.171875 0l0 -4.203125q0 -0.71875 -0.140625 -1.0625q-0.140625 -0.359375 -0.484375 -0.5625q-0.34375 -0.21875 -0.8125 -0.21875q-0.75 0 -1.296875 0.46875q-0.546875 0.46875 -0.546875 1.796875l0 3.78125l-1.171875 0zm9.381226 2.65625l-2.59375 0l0 -0.984375l1.421875 0l0 -10.25l-1.421875 0l0 -0.96875l2.59375 0l0 12.203125z" fill-rule="nonzero"/><path fill="#efefef" d="m370.46344 191.63452l92.522644 0l0 25.683167l-92.522644 0z" fill-rule="evenodd"/><path stroke="#000000" stroke-width="2.0" stroke-linejoin="round" stroke-linecap="butt" d="m370.46344 191.63452l92.522644 0l0 25.683167l-92.522644 0z" fill-rule="evenodd"/><path fill="#000000" d="m383.55576 211.93236l0 -12.203125l2.578125 0l0 0.96875l-1.40625 0l0 10.25l1.40625 0l0 0.984375l-2.578125 0zm3.6873474 -10.84375l0 -1.359375l1.171875 0l0 1.359375l-1.171875 0zm0 8.1875l0 -6.90625l1.171875 0l0 6.90625l-1.171875 0zm2.945465 0l0 -6.90625l1.0625 0l0 0.984375q0.75 -1.140625 2.1875 -1.140625q0.625 0 1.15625 0.21875q0.53125 0.21875 0.78125 0.59375q0.265625 0.359375 0.375 0.859375q0.0625 0.328125 0.0625 1.140625l0 4.25l-1.171875 0l0 -4.203125q0 -0.71875 -0.140625 -1.0625q-0.140625 -0.359375 -0.484375 -0.5625q-0.34375 -0.21875 -0.8125 -0.21875q-0.75 0 -1.296875 0.46875q-0.546875 0.46875 -0.546875 1.796875l0 3.78125l-1.171875 0zm6.9437256 -2.0625l1.15625 -0.1875q0.109375 0.703125 0.546875 1.078125q0.453125 0.359375 1.25 0.359375q0.8125 0 1.203125 -0.328125q0.390625 -0.328125 0.390625 -0.765625q0 -0.390625 -0.359375 -0.625q-0.234375 -0.15625 -1.1875 -0.390625q-1.296875 -0.328125 -1.796875 -0.5625q-0.484375 -0.25 -0.75 -0.65625q-0.25 -0.421875 -0.25 -0.9375q0 -0.453125 0.203125 -0.84375q0.21875 -0.40625 0.578125 -0.671875q0.28125 -0.1875 0.75 -0.328125q0.46875 -0.140625 1.015625 -0.140625q0.8125 0 1.421875 0.234375q0.609375 0.234375 0.90625 0.640625q0.296875 0.390625 0.40625 1.0625l-1.140625 0.15625q-0.078125 -0.53125 -0.453125 -0.828125q-0.375 -0.3125 -1.0625 -0.3125q-0.8125 0 -1.15625 0.265625q-0.34375 0.265625 -0.34375 0.625q0 0.234375 0.140625 0.421875q0.15625 0.1875 0.453125 0.3125q0.171875 0.0625 1.03125 0.296875q1.25 0.328125 1.734375 0.546875q0.5 0.203125 0.78125 0.609375q0.28125 0.40625 0.28125 1.0q0 0.59375 -0.34375 1.109375q-0.34375 0.515625 -1.0 0.796875q-0.640625 0.28125 -1.453125 0.28125q-1.34375 0 -2.046875 -0.5625q-0.703125 -0.5625 -0.90625 -1.65625zm9.6953125 1.015625l0.171875 1.03125q-0.5 0.109375 -0.890625 0.109375q-0.640625 0 -1.0 -0.203125q-0.34375 -0.203125 -0.484375 -0.53125q-0.140625 -0.328125 -0.140625 -1.390625l0 -3.96875l-0.859375 0l0 -0.90625l0.859375 0l0 -1.71875l1.171875 -0.703125l0 2.421875l1.171875 0l0 0.90625l-1.171875 0l0 4.046875q0 0.5 0.046875 0.640625q0.0625 0.140625 0.203125 0.234375q0.140625 0.078125 0.40625 0.078125q0.203125 0 0.515625 -0.046875zm1.1248779 1.046875l0 -6.90625l1.0625 0l0 1.046875q0.40625 -0.734375 0.734375 -0.96875q0.34375 -0.234375 0.765625 -0.234375q0.59375 0 1.203125 0.375l-0.40625 1.078125q-0.4375 -0.25 -0.859375 -0.25q-0.390625 0 -0.703125 0.234375q-0.296875 0.234375 -0.421875 0.640625q-0.203125 0.625 -0.203125 1.359375l0 3.625l-1.171875 0zm8.9852295 0l0 -1.015625q-0.8125 1.171875 -2.1875 1.171875q-0.609375 0 -1.140625 -0.234375q-0.53125 -0.234375 -0.796875 -0.578125q-0.25 -0.359375 -0.359375 -0.875q-0.0625 -0.34375 -0.0625 -1.09375l0 -4.28125l1.171875 0l0 3.828125q0 0.921875 0.0625 1.234375q0.109375 0.46875 0.46875 0.734375q0.359375 0.25 0.890625 0.25q0.515625 0 0.984375 -0.265625q0.46875 -0.265625 0.65625 -0.734375q0.1875 -0.46875 0.1875 -1.34375l0 -3.703125l1.171875 0l0 6.90625l-1.046875 0zm7.3968506 -2.53125l1.15625 0.15625q-0.1875 1.1875 -0.96875 1.859375q-0.78125 0.671875 -1.921875 0.671875q-1.40625 0 -2.28125 -0.921875q-0.859375 -0.9375 -0.859375 -2.65625q0 -1.125 0.375 -1.96875q0.375 -0.84375 1.125 -1.25q0.765625 -0.421875 1.65625 -0.421875q1.125 0 1.84375 0.578125q0.71875 0.5625 0.921875 1.609375l-1.140625 0.171875q-0.171875 -0.703125 -0.59375 -1.046875q-0.40625 -0.359375 -0.984375 -0.359375q-0.890625 0 -1.453125 0.640625q-0.546875 0.640625 -0.546875 2.0q0 1.40625 0.53125 2.03125q0.546875 0.625 1.40625 0.625q0.6875 0 1.140625 -0.421875q0.46875 -0.421875 0.59375 -1.296875zm4.7109375 1.484375l0.171875 1.03125q-0.5 0.109375 -0.890625 0.109375q-0.640625 0 -1.0 -0.203125q-0.34375 -0.203125 -0.484375 -0.53125q-0.140625 -0.328125 -0.140625 -1.390625l0 -3.96875l-0.859375 0l0 -0.90625l0.859375 0l0 -1.71875l1.171875 -0.703125l0 2.421875l1.171875 0l0 0.90625l-1.171875 0l0 4.046875q0 0.5 0.046875 0.640625q0.0625 0.140625 0.203125 0.234375q0.140625 0.078125 0.40625 0.078125q0.203125 0 0.515625 -0.046875zm1.1561279 -7.140625l0 -1.359375l1.171875 0l0 1.359375l-1.171875 0zm0 8.1875l0 -6.90625l1.171875 0l0 6.90625l-1.171875 0zm2.507965 -3.453125q0 -1.921875 1.078125 -2.84375q0.890625 -0.765625 2.171875 -0.765625q1.421875 0 2.328125 0.9375q0.90625 0.921875 0.90625 2.578125q0 1.328125 -0.40625 2.09375q-0.390625 0.765625 -1.15625 1.1875q-0.765625 0.421875 -1.671875 0.421875q-1.453125 0 -2.359375 -0.921875q-0.890625 -0.9375 -0.890625 -2.6875zm1.203125 0q0 1.328125 0.578125 1.984375q0.59375 0.65625 1.46875 0.65625q0.875 0 1.453125 -0.65625q0.578125 -0.671875 0.578125 -2.03125q0 -1.28125 -0.59375 -1.9375q-0.578125 -0.65625 -1.4375 -0.65625q-0.875 0 -1.46875 0.65625q-0.578125 0.65625 -0.578125 1.984375zm6.6468506 3.453125l0 -6.90625l1.0625 0l0 0.984375q0.75 -1.140625 2.1875 -1.140625q0.625 0 1.15625 0.21875q0.53125 0.21875 0.78125 0.59375q0.265625 0.359375 0.375 0.859375q0.0625 0.328125 0.0625 1.140625l0 4.25l-1.171875 0l0 -4.203125q0 -0.71875 -0.140625 -1.0625q-0.140625 -0.359375 -0.484375 -0.5625q-0.34375 -0.21875 -0.8125 -0.21875q-0.75 0 -1.296875 0.46875q-0.546875 0.46875 -0.546875 1.796875l0 3.78125l-1.171875 0zm9.381226 2.65625l-2.59375 0l0 -0.984375l1.421875 0l0 -10.25l-1.421875 0l0 -0.96875l2.59375 0l0 12.203125z" fill-rule="nonzero"/><path fill="#efefef" d="m370.46344 217.32207l92.522644 0l0 25.683167l-92.522644 0z" fill-rule="evenodd"/><path stroke="#000000" stroke-width="2.0" stroke-linejoin="round" stroke-linecap="butt" d="m370.46344 217.32207l92.522644 0l0 25.683167l-92.522644 0z" fill-rule="evenodd"/><path fill="#000000" d="m383.55576 237.6199l0 -12.203125l2.578125 0l0 0.96875l-1.40625 0l0 10.25l1.40625 0l0 0.984375l-2.578125 0zm3.6873474 -10.84375l0 -1.359375l1.171875 0l0 1.359375l-1.171875 0zm0 8.1875l0 -6.90625l1.171875 0l0 6.90625l-1.171875 0zm2.945465 0l0 -6.90625l1.0625 0l0 0.984375q0.75 -1.140625 2.1875 -1.140625q0.625 0 1.15625 0.21875q0.53125 0.21875 0.78125 0.59375q0.265625 0.359375 0.375 0.859375q0.0625 0.328125 0.0625 1.140625l0 4.25l-1.171875 0l0 -4.203125q0 -0.71875 -0.140625 -1.0625q-0.140625 -0.359375 -0.484375 -0.5625q-0.34375 -0.21875 -0.8125 -0.21875q-0.75 0 -1.296875 0.46875q-0.546875 0.46875 -0.546875 1.796875l0 3.78125l-1.171875 0zm6.9437256 -2.0625l1.15625 -0.1875q0.109375 0.703125 0.546875 1.078125q0.453125 0.359375 1.25 0.359375q0.8125 0 1.203125 -0.328125q0.390625 -0.328125 0.390625 -0.765625q0 -0.390625 -0.359375 -0.625q-0.234375 -0.15625 -1.1875 -0.390625q-1.296875 -0.328125 -1.796875 -0.5625q-0.484375 -0.25 -0.75 -0.65625q-0.25 -0.421875 -0.25 -0.9375q0 -0.453125 0.203125 -0.84375q0.21875 -0.40625 0.578125 -0.671875q0.28125 -0.1875 0.75 -0.328125q0.46875 -0.140625 1.015625 -0.140625q0.8125 0 1.421875 0.234375q0.609375 0.234375 0.90625 0.640625q0.296875 0.390625 0.40625 1.0625l-1.140625 0.15625q-0.078125 -0.53125 -0.453125 -0.828125q-0.375 -0.3125 -1.0625 -0.3125q-0.8125 0 -1.15625 0.265625q-0.34375 0.265625 -0.34375 0.625q0 0.234375 0.140625 0.421875q0.15625 0.1875 0.453125 0.3125q0.171875 0.0625 1.03125 0.296875q1.25 0.328125 1.734375 0.546875q0.5 0.203125 0.78125 0.609375q0.28125 0.40625 0.28125 1.0q0 0.59375 -0.34375 1.109375q-0.34375 0.515625 -1.0 0.796875q-0.640625 0.28125 -1.453125 0.28125q-1.34375 0 -2.046875 -0.5625q-0.703125 -0.5625 -0.90625 -1.65625zm9.6953125 1.015625l0.171875 1.03125q-0.5 0.109375 -0.890625 0.109375q-0.640625 0 -1.0 -0.203125q-0.34375 -0.203125 -0.484375 -0.53125q-0.140625 -0.328125 -0.140625 -1.390625l0 -3.96875l-0.859375 0l0 -0.90625l0.859375 0l0 -1.71875l1.171875 -0.703125l0 2.421875l1.171875 0l0 0.90625l-1.171875 0l0 4.046875q0 0.5 0.046875 0.640625q0.0625 0.140625 0.203125 0.234375q0.140625 0.078125 0.40625 0.078125q0.203125 0 0.515625 -0.046875zm1.1248779 1.046875l0 -6.90625l1.0625 0l0 1.046875q0.40625 -0.734375 0.734375 -0.96875q0.34375 -0.234375 0.765625 -0.234375q0.59375 0 1.203125 0.375l-0.40625 1.078125q-0.4375 -0.25 -0.859375 -0.25q-0.390625 0 -0.703125 0.234375q-0.296875 0.234375 -0.421875 0.640625q-0.203125 0.625 -0.203125 1.359375l0 3.625l-1.171875 0zm8.9852295 0l0 -1.015625q-0.8125 1.171875 -2.1875 1.171875q-0.609375 0 -1.140625 -0.234375q-0.53125 -0.234375 -0.796875 -0.578125q-0.25 -0.359375 -0.359375 -0.875q-0.0625 -0.34375 -0.0625 -1.09375l0 -4.28125l1.171875 0l0 3.828125q0 0.921875 0.0625 1.234375q0.109375 0.46875 0.46875 0.734375q0.359375 0.25 0.890625 0.25q0.515625 0 0.984375 -0.265625q0.46875 -0.265625 0.65625 -0.734375q0.1875 -0.46875 0.1875 -1.34375l0 -3.703125l1.171875 0l0 6.90625l-1.046875 0zm7.3968506 -2.53125l1.15625 0.15625q-0.1875 1.1875 -0.96875 1.859375q-0.78125 0.671875 -1.921875 0.671875q-1.40625 0 -2.28125 -0.921875q-0.859375 -0.9375 -0.859375 -2.65625q0 -1.125 0.375 -1.96875q0.375 -0.84375 1.125 -1.25q0.765625 -0.421875 1.65625 -0.421875q1.125 0 1.84375 0.578125q0.71875 0.5625 0.921875 1.609375l-1.140625 0.171875q-0.171875 -0.703125 -0.59375 -1.046875q-0.40625 -0.359375 -0.984375 -0.359375q-0.890625 0 -1.453125 0.640625q-0.546875 0.640625 -0.546875 2.0q0 1.40625 0.53125 2.03125q0.546875 0.625 1.40625 0.625q0.6875 0 1.140625 -0.421875q0.46875 -0.421875 0.59375 -1.296875zm4.7109375 1.484375l0.171875 1.03125q-0.5 0.109375 -0.890625 0.109375q-0.640625 0 -1.0 -0.203125q-0.34375 -0.203125 -0.484375 -0.53125q-0.140625 -0.328125 -0.140625 -1.390625l0 -3.96875l-0.859375 0l0 -0.90625l0.859375 0l0 -1.71875l1.171875 -0.703125l0 2.421875l1.171875 0l0 0.90625l-1.171875 0l0 4.046875q0 0.5 0.046875 0.640625q0.0625 0.140625 0.203125 0.234375q0.140625 0.078125 0.40625 0.078125q0.203125 0 0.515625 -0.046875zm1.1561279 -7.140625l0 -1.359375l1.171875 0l0 1.359375l-1.171875 0zm0 8.1875l0 -6.90625l1.171875 0l0 6.90625l-1.171875 0zm2.507965 -3.453125q0 -1.921875 1.078125 -2.84375q0.890625 -0.765625 2.171875 -0.765625q1.421875 0 2.328125 0.9375q0.90625 0.921875 0.90625 2.578125q0 1.328125 -0.40625 2.09375q-0.390625 0.765625 -1.15625 1.1875q-0.765625 0.421875 -1.671875 0.421875q-1.453125 0 -2.359375 -0.921875q-0.890625 -0.9375 -0.890625 -2.6875zm1.203125 0q0 1.328125 0.578125 1.984375q0.59375 0.65625 1.46875 0.65625q0.875 0 1.453125 -0.65625q0.578125 -0.671875 0.578125 -2.03125q0 -1.28125 -0.59375 -1.9375q-0.578125 -0.65625 -1.4375 -0.65625q-0.875 0 -1.46875 0.65625q-0.578125 0.65625 -0.578125 1.984375zm6.6468506 3.453125l0 -6.90625l1.0625 0l0 0.984375q0.75 -1.140625 2.1875 -1.140625q0.625 0 1.15625 0.21875q0.53125 0.21875 0.78125 0.59375q0.265625 0.359375 0.375 0.859375q0.0625 0.328125 0.0625 1.140625l0 4.25l-1.171875 0l0 -4.203125q0 -0.71875 -0.140625 -1.0625q-0.140625 -0.359375 -0.484375 -0.5625q-0.34375 -0.21875 -0.8125 -0.21875q-0.75 0 -1.296875 0.46875q-0.546875 0.46875 -0.546875 1.796875l0 3.78125l-1.171875 0zm9.381226 2.65625l-2.59375 0l0 -0.984375l1.421875 0l0 -10.25l-1.421875 0l0 -0.96875l2.59375 0l0 12.203125z" fill-rule="nonzero"/><path fill="#000000" fill-opacity="0.0" d="m146.39452 88.15879c50.452667 0 75.67697 -16.456688 100.90532 -32.913383c25.228333 -16.456692 50.460724 -32.913383 100.92145 -32.913383" fill-rule="evenodd"/><path stroke="#666666" stroke-width="4.0" stroke-linejoin="round" stroke-linecap="butt" stroke-dasharray="16.0,12.0" d="m146.39452 88.15879c50.452652 0 75.67697 -16.456688 100.90532 -32.913383c12.614166 -8.228348 25.22934 -16.456692 40.998566 -22.627953c7.8846436 -3.0856304 16.55777 -5.656988 26.413513 -7.4569397c2.4639587 -0.4499874 5.0018005 -0.8517628 7.619751 -1.2013054c0.32724 -0.043693542 0.6557312 -0.08657074 0.98550415 -0.12862396l0.9438782 -0.11755562" fill-rule="evenodd"/><path fill="#666666" stroke="#666666" stroke-width="4.0" stroke-linecap="butt" d="m324.64124 30.309011l17.742126 -7.6405067l-18.502472 -5.5514584z" fill-rule="evenodd"/><path fill="#f3f3f3" d="m9.922082 71.71785l136.47243 0l0 32.88189l-136.47243 0z" fill-rule="evenodd"/><path stroke="#000000" stroke-width="2.0" stroke-linejoin="round" stroke-linecap="butt" d="m9.922082 71.71785l136.47243 0l0 32.88189l-136.47243 0z" fill-rule="evenodd"/><path fill="#000000" d="m40.955322 84.51629q0.171875 -0.234375 0.375 -0.359375q0.203125 -0.125 0.4375 -0.125q0.40625 0 0.671875 0.296875q0.265625 0.28125 0.265625 0.953125l0 1.578125q0 0.671875 -0.265625 0.96875q-0.265625 0.28125 -0.671875 0.28125q-0.375 0 -0.59375 -0.203125q-0.234375 -0.21875 -0.34375 -0.796875q-0.0625 -0.375 -0.25 -0.578125q-0.375 -0.421875 -1.046875 -0.65625q-0.671875 -0.25 -1.34375 -0.25q-0.84375 0 -1.546875 0.359375q-0.6875 0.359375 -1.234375 1.1875q-0.53125 0.8125 -0.53125 1.953125l0 1.203125q0 1.359375 0.96875 2.265625q0.984375 0.890625 2.734375 0.890625q1.03125 0 1.75 -0.28125q0.421875 -0.171875 0.890625 -0.640625q0.296875 -0.296875 0.453125 -0.375q0.171875 -0.09375 0.375 -0.09375q0.375 0 0.65625 0.28125q0.28125 0.28125 0.28125 0.65625q0 0.390625 -0.375 0.828125q-0.5625 0.640625 -1.4375 1.0q-1.171875 0.484375 -2.59375 0.484375q-1.65625 0 -2.984375 -0.671875q-1.078125 -0.546875 -1.84375 -1.71875q-0.75 -1.1875 -0.75 -2.578125l0 -1.265625q0 -1.46875 0.671875 -2.71875q0.6875 -1.265625 1.890625 -1.953125q1.203125 -0.6875 2.546875 -0.6875q0.8125 0 1.515625 0.1875q0.71875 0.1875 1.328125 0.578125zm10.539322 7.5625l-4.53125 0l-0.453125 1.125l0.453125 0q0.671875 0 0.953125 0.265625q0.296875 0.265625 0.296875 0.6875q0 0.40625 -0.296875 0.671875q-0.28125 0.25 -0.953125 0.25l-2.515625 0q-0.671875 0 -0.953125 -0.25q-0.296875 -0.265625 -0.296875 -0.6875q0 -0.421875 0.3125 -0.6875q0.296875 -0.265625 0.984375 -0.25l2.9375 -7.296875l-1.21875 0q-0.6875 0 -0.96875 -0.25q-0.28125 -0.265625 -0.28125 -0.6875q0 -0.421875 0.28125 -0.671875q0.28125 -0.265625 0.96875 -0.265625l4.03125 0l3.71875 9.171875q0.65625 0 0.859375 0.15625q0.421875 0.296875 0.421875 0.796875q0 0.40625 -0.28125 0.671875q-0.28125 0.25 -0.953125 0.25l-2.515625 0q-0.671875 0 -0.96875 -0.25q-0.28125 -0.265625 -0.28125 -0.6875q0 -0.40625 0.28125 -0.671875q0.296875 -0.265625 0.96875 -0.265625l0.453125 0l-0.453125 -1.125zm-0.765625 -1.875l-1.5 -3.703125l-1.515625 3.703125l3.015625 0zm8.898697 -4.296875l0 7.296875l4.03125 0l0 -1.765625q0 -0.671875 0.25 -0.953125q0.265625 -0.28125 0.6875 -0.28125q0.40625 0 0.671875 0.28125q0.265625 0.28125 0.265625 0.953125l0 3.640625l-8.84375 0q-0.6875 0 -0.96875 -0.25q-0.28125 -0.265625 -0.28125 -0.6875q0 -0.40625 0.28125 -0.671875q0.28125 -0.265625 0.96875 -0.265625l1.078125 0l0 -7.296875l-1.078125 0q-0.6875 0 -0.96875 -0.25q-0.28125 -0.265625 -0.28125 -0.6875q0 -0.421875 0.28125 -0.671875q0.28125 -0.265625 0.96875 -0.265625l4.03125 0q0.6875 0 0.96875 0.265625q0.28125 0.25 0.28125 0.671875q0 0.421875 -0.28125 0.6875q-0.28125 0.25 -0.96875 0.25l-1.09375 0zm11.195572 0l0 7.296875l4.03125 0l0 -1.765625q0 -0.671875 0.25 -0.953125q0.265625 -0.28125 0.6875 -0.28125q0.40625 0 0.671875 0.28125q0.265625 0.28125 0.265625 0.953125l0 3.640625l-8.84375 0q-0.6875 0 -0.96875 -0.25q-0.28125 -0.265625 -0.28125 -0.6875q0 -0.40625 0.28125 -0.671875q0.28125 -0.265625 0.96875 -0.265625l1.078125 0l0 -7.296875l-1.078125 0q-0.6875 0 -0.96875 -0.25q-0.28125 -0.265625 -0.28125 -0.6875q0 -0.421875 0.28125 -0.671875q0.28125 -0.265625 0.96875 -0.265625l4.03125 0q0.6875 0 0.96875 0.265625q0.28125 0.25 0.28125 0.671875q0 0.421875 -0.28125 0.6875q-0.28125 0.25 -0.96875 0.25l-1.09375 0z" fill-rule="nonzero"/><path fill="#000000" d="m89.73341 95.07879l-2.5625 0l0 -9.640625q-1.40625 1.3125 -3.3125 1.9375l0 -2.328125q1.015625 -0.328125 2.1875 -1.234375q1.171875 -0.921875 1.609375 -2.140625l2.078125 0l0 13.40625zm8.156967 -13.40625q1.9375 0 3.03125 1.375q1.296875 1.640625 1.296875 5.4375q0 3.796875 -1.3125 5.453125q-1.078125 1.375 -3.015625 1.375q-1.953125 0 -3.15625 -1.5q-1.1875 -1.5 -1.1875 -5.34375q0 -3.78125 1.3125 -5.4375q1.078125 -1.359375 3.03125 -1.359375zm0 2.125q-0.46875 0 -0.84375 0.296875q-0.359375 0.296875 -0.5625 1.0625q-0.25 0.984375 -0.25 3.328125q0 2.359375 0.234375 3.234375q0.234375 0.875 0.59375 1.171875q0.359375 0.296875 0.828125 0.296875q0.453125 0 0.8125 -0.296875q0.375 -0.296875 0.578125 -1.0625q0.265625 -0.984375 0.265625 -3.34375q0 -2.34375 -0.25 -3.21875q-0.234375 -0.875 -0.59375 -1.171875q-0.359375 -0.296875 -0.8125 -0.296875zm10.375717 -2.125q1.9375 0 3.03125 1.375q1.296875 1.640625 1.296875 5.4375q0 3.796875 -1.3125 5.453125q-1.078125 1.375 -3.015625 1.375q-1.953125 0 -3.15625 -1.5q-1.1875 -1.5 -1.1875 -5.34375q0 -3.78125 1.3125 -5.4375q1.078125 -1.359375 3.03125 -1.359375zm0 2.125q-0.46875 0 -0.84375 0.296875q-0.359375 0.296875 -0.5625 1.0625q-0.25 0.984375 -0.25 3.328125q0 2.359375 0.234375 3.234375q0.234375 0.875 0.59375 1.171875q0.359375 0.296875 0.828125 0.296875q0.453125 0 0.8125 -0.296875q0.375 -0.296875 0.578125 -1.0625q0.265625 -0.984375 0.265625 -3.34375q0 -2.34375 -0.25 -3.21875q-0.234375 -0.875 -0.59375 -1.171875q-0.359375 -0.296875 -0.8125 -0.296875zm12.594467 11.28125l-2.5625 0l0 -9.640625q-1.40625 1.3125 -3.3125 1.9375l0 -2.328125q1.015625 -0.328125 2.1875 -1.234375q1.171875 -0.921875 1.609375 -2.140625l2.078125 0l0 13.40625z" fill-rule="nonzero"/><path fill="#000000" fill-opacity="0.0" d="m146.39452 88.15879c56.016876 0 84.02586 16.236221 112.03374 32.472443c28.007874 16.236214 56.01465 32.472435 112.02927 32.472435" fill-rule="evenodd"/><path stroke="#666666" stroke-width="4.0" stroke-linejoin="round" stroke-linecap="butt" stroke-dasharray="16.0,12.0" d="m146.39452 88.15879c56.016876 0 84.02586 16.236221 112.03374 32.472443c14.003937 8.118111 28.007599 16.236214 45.512085 22.324806c8.752258 3.0442963 18.37973 5.581192 29.320038 7.3570404c2.7351074 0.44395447 5.5522156 0.8403473 8.458221 1.1852112c1.4530334 0.17242432 2.9282532 0.3319702 4.4265747 0.4781494l0.33737183 0.0320282" fill-rule="evenodd"/><path fill="#666666" stroke="#666666" stroke-width="4.0" stroke-linecap="butt" d="m346.18103 158.6085l18.434967 -5.7716827l-17.83197 -7.428406z" fill-rule="evenodd"/><path fill="#f3f3f3" d="m263.15878 18.70354l0 0c0 -3.5457106 2.8743896 -6.4200764 6.4200745 -6.4200764l26.561432 0l0 0c1.7026978 0 3.3356934 0.67639923 4.539673 1.8803968c1.20401 1.2039976 1.8804016 2.8369684 1.8804016 4.5396795l0 25.679531c0 3.5457115 -2.8743591 6.4200783 -6.4200745 6.4200783l-26.561432 0c-3.5456848 0 -6.4200745 -2.8743668 -6.4200745 -6.4200783z" fill-rule="evenodd"/><path stroke="#000000" stroke-width="2.0" stroke-linejoin="round" stroke-linecap="butt" d="m263.15878 18.70354l0 0c0 -3.5457106 2.8743896 -6.4200764 6.4200745 -6.4200764l26.561432 0l0 0c1.7026978 0 3.3356934 0.67639923 4.539673 1.8803968c1.20401 1.2039976 1.8804016 2.8369684 1.8804016 4.5396795l0 25.679531c0 3.5457115 -2.8743591 6.4200783 -6.4200745 6.4200783l-26.561432 0c-3.5456848 0 -6.4200745 -2.8743668 -6.4200745 -6.4200783z" fill-rule="evenodd"/><path fill="#000000" d="m267.96115 31.747057q0 -2.03125 0.40625 -3.265625q0.421875 -1.234375 1.25 -1.90625q0.828125 -0.671875 2.078125 -0.671875q0.921875 0 1.609375 0.375q0.703125 0.359375 1.15625 1.0625q0.453125 0.703125 0.703125 1.703125q0.265625 1.0 0.265625 2.703125q0 2.015623 -0.421875 3.265623q-0.40625 1.234375 -1.234375 1.921875q-0.828125 0.671875 -2.078125 0.671875q-1.65625 0 -2.609375 -1.203125q-1.125 -1.421875 -1.125 -4.656248zm1.4375 0q0 2.828123 0.65625 3.765623q0.671875 0.921875 1.640625 0.921875q0.96875 0 1.625 -0.9375q0.65625 -0.9375 0.65625 -3.749998q0 -2.828125 -0.65625 -3.75q-0.65625 -0.9375 -1.640625 -0.9375q-0.96875 0 -1.546875 0.828125q-0.734375 1.046875 -0.734375 3.859375zm8.2421875 5.656248l0 -1.609375l1.609375 0l0 1.609375l-1.609375 0zm3.6640625 -3.0l1.46875 -0.125q0.171875 1.078125 0.765625 1.625q0.59375 0.53125 1.4375 0.53125q1.015625 0 1.71875 -0.765625q0.703125 -0.765625 0.703125 -2.03125q0 -1.203125 -0.671875 -1.8906231q-0.671875 -0.703125 -1.765625 -0.703125q-0.6875 0 -1.234375 0.3125q-0.546875 0.3125 -0.859375 0.7968731l-1.3125 -0.1718731l1.109375 -5.875l5.6875 0l0 1.34375l-4.5625 0l-0.625 3.078125q1.03125 -0.71875 2.171875 -0.71875q1.5 0 2.53125 1.046875q1.03125 1.03125 1.03125 2.656248q0 1.5625 -0.90625 2.6875q-1.109375 1.40625 -3.015625 1.40625q-1.5625 0 -2.546875 -0.875q-0.984375 -0.890625 -1.125 -2.328125zm8.8984375 -2.656248q0 -2.03125 0.40625 -3.265625q0.421875 -1.234375 1.25 -1.90625q0.828125 -0.671875 2.078125 -0.671875q0.921875 0 1.609375 0.375q0.703125 0.359375 1.15625 1.0625q0.453125 0.703125 0.703125 1.703125q0.265625 1.0 0.265625 2.703125q0 2.015623 -0.421875 3.265623q-0.40625 1.234375 -1.234375 1.921875q-0.828125 0.671875 -2.078125 0.671875q-1.65625 0 -2.609375 -1.203125q-1.125 -1.421875 -1.125 -4.656248zm1.4375 0q0 2.828123 0.65625 3.765623q0.671875 0.921875 1.640625 0.921875q0.96875 0 1.625 -0.9375q0.65625 -0.9375 0.65625 -3.749998q0 -2.828125 -0.65625 -3.75q-0.65625 -0.9375 -1.640625 -0.9375q-0.96875 0 -1.546875 0.828125q-0.734375 1.046875 -0.734375 3.859375z" fill-rule="nonzero"/><path fill="#f3f3f3" d="m289.0489 131.93784l0 0c0 -3.5457 2.8743591 -6.4200745 6.4200745 -6.4200745l26.561432 0l0 0c1.7026978 0 3.3356934 0.67639923 4.539673 1.8804016c1.20401 1.2039948 1.8804016 2.8369598 1.8804016 4.539673l0 25.679535c0 3.5457153 -2.8743591 6.4200745 -6.4200745 6.4200745l-26.561432 0c-3.5457153 0 -6.4200745 -2.8743591 -6.4200745 -6.4200745z" fill-rule="evenodd"/><path stroke="#000000" stroke-width="2.0" stroke-linejoin="round" stroke-linecap="butt" d="m289.0489 131.93784l0 0c0 -3.5457 2.8743591 -6.4200745 6.4200745 -6.4200745l26.561432 0l0 0c1.7026978 0 3.3356934 0.67639923 4.539673 1.8804016c1.20401 1.2039948 1.8804016 2.8369598 1.8804016 4.539673l0 25.679535c0 3.5457153 -2.8743591 6.4200745 -6.4200745 6.4200745l-26.561432 0c-3.5457153 0 -6.4200745 -2.8743591 -6.4200745 -6.4200745z" fill-rule="evenodd"/><path fill="#000000" d="m298.30048 144.98135q0 -2.03125 0.40625 -3.265625q0.421875 -1.234375 1.25 -1.90625q0.828125 -0.671875 2.078125 -0.671875q0.921875 0 1.609375 0.375q0.703125 0.359375 1.15625 1.0625q0.453125 0.703125 0.703125 1.703125q0.265625 1.0 0.265625 2.703125q0 2.015625 -0.421875 3.265625q-0.40625 1.234375 -1.234375 1.921875q-0.828125 0.671875 -2.078125 0.671875q-1.65625 0 -2.609375 -1.203125q-1.125 -1.421875 -1.125 -4.65625zm1.4375 0q0 2.828125 0.65625 3.765625q0.671875 0.921875 1.640625 0.921875q0.96875 0 1.625 -0.9375q0.65625 -0.9375 0.65625 -3.75q0 -2.828125 -0.65625 -3.75q-0.65625 -0.9375 -1.640625 -0.9375q-0.96875 0 -1.546875 0.828125q-0.734375 1.046875 -0.734375 3.859375zm8.2421875 5.65625l0 -1.609375l1.609375 0l0 1.609375l-1.609375 0zm3.6640625 -5.65625q0 -2.03125 0.40625 -3.265625q0.421875 -1.234375 1.25 -1.90625q0.828125 -0.671875 2.078125 -0.671875q0.921875 0 1.609375 0.375q0.703125 0.359375 1.15625 1.0625q0.453125 0.703125 0.703125 1.703125q0.265625 1.0 0.265625 2.703125q0 2.015625 -0.421875 3.265625q-0.40625 1.234375 -1.234375 1.921875q-0.828125 0.671875 -2.078125 0.671875q-1.65625 0 -2.609375 -1.203125q-1.125 -1.421875 -1.125 -4.65625zm1.4375 0q0 2.828125 0.65625 3.765625q0.671875 0.921875 1.640625 0.921875q0.96875 0 1.625 -0.9375q0.65625 -0.9375 0.65625 -3.75q0 -2.828125 -0.65625 -3.75q-0.65625 -0.9375 -1.640625 -0.9375q-0.96875 0 -1.546875 0.828125q-0.734375 1.046875 -0.734375 3.859375z" fill-rule="nonzero"/><path fill="#000000" fill-opacity="0.0" d="m146.39452 88.15879c53.61418 0 80.421265 -0.15747833 107.22835 -0.31495667c26.807098 -0.15748596 53.614166 -0.3149643 107.22836 -0.3149643" fill-rule="evenodd"/><path stroke="#1155cc" stroke-width="4.0" stroke-linejoin="round" stroke-linecap="butt" d="m146.39452 88.15879c53.61418 0 80.421265 -0.15747833 107.22835 -0.31495667c13.403534 -0.07874298 26.807098 -0.15748596 43.561523 -0.21653748c8.377197 -0.029525757 17.592133 -0.054130554 28.06366 -0.07135773l11.60318 -0.013893127" fill-rule="evenodd"/><path fill="#1155cc" stroke="#1155cc" stroke-width="4.0" stroke-linecap="butt" d="m336.85486 94.14898l18.148743 -6.6168976l-18.156006 -6.596962z" fill-rule="evenodd"/><path fill="#f3f3f3" d="m263.15982 75.32012l0 0c0 -3.5457077 2.8743896 -6.4200745 6.4200745 -6.4200745l26.561432 0l0 0c1.7026978 0 3.3356934 0.67639923 4.539673 1.880394c1.20401 1.2040024 1.8804016 2.836975 1.8804016 4.5396805l0 25.679535c0 3.5457077 -2.8743591 6.4200745 -6.4200745 6.4200745l-26.561432 0c-3.5456848 0 -6.4200745 -2.8743668 -6.4200745 -6.4200745z" fill-rule="evenodd"/><path stroke="#000000" stroke-width="2.0" stroke-linejoin="round" stroke-linecap="butt" d="m263.15982 75.32012l0 0c0 -3.5457077 2.8743896 -6.4200745 6.4200745 -6.4200745l26.561432 0l0 0c1.7026978 0 3.3356934 0.67639923 4.539673 1.880394c1.20401 1.2040024 1.8804016 2.836975 1.8804016 4.5396805l0 25.679535c0 3.5457077 -2.8743591 6.4200745 -6.4200745 6.4200745l-26.561432 0c-3.5456848 0 -6.4200745 -2.8743668 -6.4200745 -6.4200745z" fill-rule="evenodd"/><path fill="#000000" d="m267.9622 88.36364q0 -2.03125 0.40625 -3.265625q0.421875 -1.234375 1.25 -1.90625q0.828125 -0.671875 2.078125 -0.671875q0.921875 0 1.609375 0.375q0.703125 0.359375 1.15625 1.0625q0.453125 0.703125 0.703125 1.703125q0.265625 1.0 0.265625 2.703125q0 2.015625 -0.421875 3.265625q-0.40625 1.234375 -1.234375 1.921875q-0.828125 0.671875 -2.078125 0.671875q-1.65625 0 -2.609375 -1.203125q-1.125 -1.421875 -1.125 -4.65625zm1.4375 0q0 2.828125 0.65625 3.765625q0.671875 0.921875 1.640625 0.921875q0.96875 0 1.625 -0.9375q0.65625 -0.9375 0.65625 -3.75q0 -2.828125 -0.65625 -3.75q-0.65625 -0.9375 -1.640625 -0.9375q-0.96875 0 -1.546875 0.828125q-0.734375 1.046875 -0.734375 3.859375zm8.2421875 5.65625l0 -1.609375l1.609375 0l0 1.609375l-1.609375 0zm3.7578125 -9.953125l0 -1.359375l7.40625 0l0 1.09375q-1.09375 1.171875 -2.171875 3.109375q-1.0625 1.921875 -1.65625 3.953125q-0.421875 1.4375 -0.53125 3.15625l-1.453125 0q0.03125 -1.359375 0.53125 -3.265625q0.515625 -1.921875 1.453125 -3.6875q0.953125 -1.78125 2.03125 -3.0l-5.609375 0zm8.8046875 6.953125l1.46875 -0.125q0.171875 1.078125 0.765625 1.625q0.59375 0.53125 1.4375 0.53125q1.015625 0 1.71875 -0.765625q0.703125 -0.765625 0.703125 -2.03125q0 -1.203125 -0.671875 -1.890625q-0.671875 -0.703125 -1.765625 -0.703125q-0.6875 0 -1.234375 0.3125q-0.546875 0.3125 -0.859375 0.796875l-1.3125 -0.171875l1.109375 -5.875l5.6875 0l0 1.34375l-4.5625 0l-0.625 3.078125q1.03125 -0.71875 2.171875 -0.71875q1.5 0 2.53125 1.046875q1.03125 1.03125 1.03125 2.65625q0 1.5625 -0.90625 2.6875q-1.109375 1.40625 -3.015625 1.40625q-1.5625 0 -2.546875 -0.875q-0.984375 -0.890625 -1.125 -2.328125z" fill-rule="nonzero"/></g></svg>